<svg version="1.1" id="Layer_1" xmlns:x="ns_extend;" xmlns:i="ns_ai;" xmlns:graph="ns_graphs;" xmlns="http://www.w3.org/2000/svg" xmlns:xlink="http://www.w3.org/1999/xlink" x="0px" y="0px" viewBox="0 0 60.08 58.29" style="enable-background:new 0 0 60.08 58.29;" xml:space="preserve">
 <style type="text/css">
  .st0{clip-path:url(#SVGID_2_);fill:#F9A224;}
	.st1{clip-path:url(#SVGID_4_);fill:#4D9F68;}
	.st2{clip-path:url(#SVGID_6_);fill:#FFCA36;}
	.st3{clip-path:url(#SVGID_8_);fill:#FD583B;}
	.st4{clip-path:url(#SVGID_10_);fill:#FD46AC;}
	.st5{clip-path:url(#SVGID_12_);fill:#60668D;}
	.st6{clip-path:url(#SVGID_14_);fill:#5363D6;}
	.st7{clip-path:url(#SVGID_16_);fill:#29B8BA;}
 </style>
 <metadata>
  <sfw xmlns="ns_sfw;">
   <slices>
   </slices>
   <sliceSourceBounds bottomLeftOrigin="true" height="58.29" width="60.08" x="206.18" y="43.88">
   </sliceSourceBounds>
  </sfw>
 </metadata>
 <g>
  <g>
   <g>
    <defs>
     <path id="SVGID_1_" d="M7.66,35.25c-1.61,1.61-4.23,1.62-5.85,0L1.4,34.83c-1.61-1.61-1.61-4.23,0-5.85l6.18-6.18
					c1.61-1.61,4.23-1.62,5.85,0l0.42,0.42c1.61,1.61,1.61,4.23,0,5.85L7.66,35.25z">
     </path>
    </defs>
    <clipPath id="SVGID_2_">
     <use href="#SVGID_1_" style="overflow:visible;">
     </use>
    </clipPath>
    <path class="st0" d="M0,21.41h15.24v15.24H0V21.41z">
    </path>
   </g>
  </g>
  <g>
   <g>
    <defs>
     <path id="SVGID_3_" d="M23.95,7.66c-1.61-1.62-1.61-4.23,0-5.85l0.42-0.41c1.61-1.61,4.23-1.61,5.85,0l6.18,6.18
					c1.61,1.61,1.61,4.23,0,5.85l-0.41,0.42c-1.61,1.61-4.23,1.61-5.85,0L23.95,7.66z">
     </path>
    </defs>
    <clipPath id="SVGID_4_">
     <use xlink:href="#SVGID_3_" style="overflow:visible;">
     </use>
    </clipPath>
    <path class="st1" d="M22.55,0h15.24v15.24H22.55V0z">
    </path>
   </g>
  </g>
  <g>
   <g>
    <defs>
     <path id="SVGID_5_" d="M9.91,18.27c-2.28,0-4.14-1.85-4.14-4.14v-0.59c0-2.28,1.85-4.14,4.14-4.14h8.74
					c2.28,0,4.14,1.85,4.14,4.14v0.59c0,2.28-1.85,4.14-4.14,4.14H9.91z">
     </path>
    </defs>
    <clipPath id="SVGID_6_">
     <use xlink:href="#SVGID_5_" style="overflow:visible;">
     </use>
    </clipPath>
    <path class="st2" d="M5.58,9.22h17.38v9.23H5.58C5.58,18.46,5.58,9.22,5.58,9.22z">
    </path>
   </g>
  </g>
  <g>
   <g>
    <g>
     <defs>
      <path id="SVGID_7_" d="M18.53,48.65c0,2.28-1.85,4.14-4.14,4.14H13.8c-2.28,0-4.13-1.85-4.13-4.14v-8.74
						c0-2.28,1.85-4.14,4.14-4.14h0.59c2.28,0,4.14,1.85,4.14,4.14C18.53,39.92,18.53,48.65,18.53,48.65z">
      </path>
     </defs>
     <clipPath id="SVGID_8_">
      <use xlink:href="#SVGID_7_" style="overflow:visible;">
      </use>
     </clipPath>
     <path class="st3" d="M9.48,35.59h9.23v17.39H9.48V35.59z">
     </path>
    </g>
   </g>
  </g>
  <g>
   <g>
    <g>
     <defs>
      <path id="SVGID_9_" d="M36.14,50.63c1.61,1.62,1.62,4.23,0,5.85l-0.42,0.42c-1.61,1.61-4.23,1.61-5.85,0l-6.18-6.18
						c-1.61-1.61-1.61-4.23,0-5.85l0.42-0.42c1.61-1.61,4.23-1.61,5.85,0L36.14,50.63L36.14,50.63z">
      </path>
     </defs>
     <clipPath id="SVGID_10_">
      <use xlink:href="#SVGID_9_" style="overflow:visible;">
      </use>
     </clipPath>
     <path class="st4" d="M22.3,43.05h15.24v15.24H22.3V43.05z">
     </path>
    </g>
   </g>
  </g>
  <g>
   <g>
    <g>
     <defs>
      <path id="SVGID_11_" d="M50.17,40.03c2.28,0,4.14,1.85,4.14,4.14v0.59c0,2.28-1.85,4.13-4.14,4.13h-8.74
						c-2.28,0-4.14-1.85-4.14-4.14v-0.59c0-2.28,1.85-4.14,4.14-4.14H50.17L50.17,40.03z">
      </path>
     </defs>
     <clipPath id="SVGID_12_">
      <use xlink:href="#SVGID_11_" style="overflow:visible;">
      </use>
     </clipPath>
     <path class="st5" d="M37.11,39.84H54.5v9.23H37.11V39.84z">
     </path>
    </g>
   </g>
  </g>
  <g>
   <g>
    <g>
     <defs>
      <path id="SVGID_13_" d="M52.42,23.05c1.61-1.61,4.23-1.62,5.85,0l0.41,0.42c1.61,1.61,1.61,4.23,0,5.85l-6.18,6.18
						c-1.61,1.62-4.23,1.62-5.85,0l-0.42-0.42c-1.61-1.61-1.61-4.23,0-5.85L52.42,23.05L52.42,23.05z">
      </path>
     </defs>
     <clipPath id="SVGID_14_">
      <use xlink:href="#SVGID_13_" style="overflow:visible;">
      </use>
     </clipPath>
     <path class="st6" d="M44.84,21.65h15.24v15.24H44.84L44.84,21.65z">
     </path>
    </g>
   </g>
  </g>
  <g>
   <g>
    <g>
     <defs>
      <path id="SVGID_15_" d="M41.55,9.64c0-2.28,1.85-4.14,4.14-4.14h0.59c2.28,0,4.14,1.85,4.14,4.14v8.74
						c0,2.28-1.85,4.14-4.14,4.14h-0.59c-2.28,0-4.14-1.85-4.14-4.14V9.64z">
      </path>
     </defs>
     <clipPath id="SVGID_16_">
      <use xlink:href="#SVGID_15_" style="overflow:visible;">
      </use>
     </clipPath>
     <path class="st7" d="M41.37,5.32h9.23V22.7h-9.23V5.32z">
     </path>
    </g>
   </g>
  </g>
 </g>
</svg>