<svg width="951" height="1618" viewBox="0 0 951 1618" fill="none" xmlns="http://www.w3.org/2000/svg">
<path d="M20.4255 1597.46V578.998H82.5066V454.853H144.627L144.759 402.713C144.759 266.693 248.254 197.867 348.333 131.292C396.188 99.4399 441.935 69.0227 475.135 32.3024C508.349 69.0227 554.093 99.4399 601.948 131.292C702.027 197.867 805.522 266.693 805.522 402.713L805.657 454.853H867.774V578.998H929.855V1597.46H20.4255ZM888.203 558.57V434.396H826.096L825.95 402.657C825.95 336.785 803.414 279.637 757.054 228.003C716.735 183.123 664.136 148.147 613.268 114.269C565.574 82.557 520.026 52.2806 488.374 16.4326C483.627 11.0864 479.215 5.59935 475.135 -0.000136606C471.069 5.59935 466.654 11.0864 461.907 16.4326C430.24 52.2806 384.707 82.557 337.013 114.269C286.148 148.147 233.532 183.123 193.227 228.003C146.867 279.637 124.334 336.785 124.334 402.657L124.188 434.396H62.0812V558.57H0V1617.89H950.281V558.57H888.203Z" fill="black"/>
</svg>
