<?xml version="1.0" encoding="UTF-8"?><svg id="Layer_1" xmlns="http://www.w3.org/2000/svg" xmlns:xlink="http://www.w3.org/1999/xlink" viewBox="0 0 913.76 1129.12"><defs><style>.cls-1,.cls-2,.cls-3{fill:none;}.cls-2{stroke:#fff;stroke-linecap:round;stroke-width:3.05px;}.cls-2,.cls-4{stroke-miterlimit:10;}.cls-5{fill:url(#linear-gradient);}.cls-6{fill:#fafcf9;}.cls-7,.cls-8{fill:#fff;}.cls-9{fill:#211b68;}.cls-10{fill:url(#linear-gradient-2);}.cls-4{fill:url(#linear-gradient-3);stroke:url(#linear-gradient-4);stroke-width:6.11px;}.cls-11{fill:url(#linear-gradient-5);opacity:.42;}.cls-3{clip-path:url(#clippath);}.cls-8{font-family:Futura-Medium, Futura;font-size:31.7px;font-weight:500;}</style><linearGradient id="linear-gradient" x1="456.88" y1="187.16" x2="456.88" y2="1073.86" gradientUnits="userSpaceOnUse"><stop offset="0" stop-color="#78b443"/><stop offset="1" stop-color="#419045"/></linearGradient><clipPath id="clippath"><path class="cls-1" d="m831.83,335.33v397.68c-3.35,28.91-20.81,151.57-128.95,246.07-100.98,88.24-214.99,94.18-246.01,94.79-31.02-.6-145.02-6.55-246.01-94.79-108.13-94.5-125.6-217.16-128.93-246.07v-397.68c36.36-2.38,97.09-11.05,163.41-44.68,57.14-28.98,96.2-65.22,119.51-90.52,8.57-2.81,18.18-5.39,28.74-7.37,21.49-4.03,40.84-6.11,56.77-5.49,4.34.17,8.68.17,13.02,0,15.93-.62,35.28,1.47,56.78,5.49,10.57,1.97,20.17,4.56,28.74,7.37,23.31,25.3,62.36,61.54,119.51,90.52,66.33,33.63,127.05,42.3,163.41,44.68Z"/></clipPath><linearGradient id="linear-gradient-2" x1="131.29" y1="763.13" x2="893.22" y2="536.41" gradientUnits="userSpaceOnUse"><stop offset=".21" stop-color="#261a6a"/><stop offset=".35" stop-color="#261f6f"/><stop offset=".54" stop-color="#28307d"/><stop offset=".76" stop-color="#2b4c94"/><stop offset="1" stop-color="#2f73b5"/><stop offset="1" stop-color="#3074b6"/></linearGradient><linearGradient id="linear-gradient-3" x1="456.88" y1="176.47" x2="456.88" y2="1084.55" gradientUnits="userSpaceOnUse"><stop offset="0" stop-color="#3074b6"/><stop offset="1" stop-color="#261a6a"/></linearGradient><linearGradient id="linear-gradient-4" x1="456.88" y1="173.41" x2="456.88" y2="1087.6" gradientUnits="userSpaceOnUse"><stop offset="0" stop-color="#261a6a"/><stop offset="1" stop-color="#3074b6"/></linearGradient><linearGradient id="linear-gradient-5" x1="352.31" y1="665.76" x2="932.05" y2="237.03" gradientUnits="userSpaceOnUse"><stop offset="0" stop-color="#fff"/><stop offset=".13" stop-color="#fff" stop-opacity=".86"/><stop offset=".45" stop-color="#fff" stop-opacity=".49"/><stop offset=".71" stop-color="#fff" stop-opacity=".23"/><stop offset=".9" stop-color="#fff" stop-opacity=".06"/><stop offset="1" stop-color="#fff" stop-opacity="0"/></linearGradient></defs><g id="eYjk50.tif"><path d="m325.77,68.59c-.04-4.15,1.43-7.81,4.39-10.59,2.37-2.23,5.44-3.51,8.74-3.89,2.94-.34,5.87-.74,8.77-1.35,1.45-.3,2.89-.23,4.31.28,1.28.46,2.63.51,3.98.45.44-.02.91-.08,1.2-.43,1.36-1.64,3.34-2.01,5.22-2.56,2.76-.81,5.59-1.38,8.39-2.06,2.7-.66,5.6-.93,8.26.25,3.25,1.43,5.95,3.68,8.15,6.48.52.67.53,1.56.82,2.33,1.84,4.87,2.61,9.94,3.06,15.09.2,2.35.56,4.72,1.13,7.01,1.43,5.69,1.94,11.5,2.57,17.3.22,2.01,1.14,3.88,1.25,5.9.21,3.79,1.28,7.46,1.38,11.26.02.59.09,1.2.29,1.75.97,2.63.75,5.46,1.45,8.14.29,1.1-.23,2.18-.54,3.22-.13.43-.58.6-1.01.75-2.38.81-4.88.93-7.35,1.15-1.41.13-2.77-1.08-3.02-2.48-.46-2.56-.94-5.11-1.54-7.65-.51-2.17-.4-4.47-.72-6.69-.47-3.28-.94-6.55-1.71-9.79-.88-3.72-1.11-7.56-1.62-11.35-.64-4.72-1.6-9.4-2.24-14.11-.53-3.93-1.35-7.84-1.48-11.84-.06-2.01-1.52-3.39-2.89-4.71-.3-.29-.75-.28-1.13-.18-2.59.69-5.3.79-7.82,1.83-1.82.74-2.51,1.67-2.15,3.64.8,4.38,1.27,8.81,2.24,13.17.84,3.79.92,7.75,1.33,11.63.04.39-.03.83.13,1.17,1.21,2.57,1.1,5.38,1.53,8.1.78,5.02,1.01,10.15,2.29,15.06,1.06,4.05,1.03,8.21,1.86,12.27.32,1.56.61,3.34-1.09,4.53-.26.18-.47.44-.8.47-2.08.2-4.16.54-6.24.54-2.05,0-3.46-1.31-3.56-3.37-.22-4.59-1.62-9-1.92-13.57-.01-.16-.01-.33-.08-.46-1.37-2.53-.98-5.4-1.54-8.08-.74-3.55-.89-7.2-1.93-10.7-.7-2.37-.58-4.85-.92-7.27-.51-3.72-1.52-7.35-1.94-11.06-.39-3.45-1.37-6.81-1.41-10.3-.01-1.19-1.05-2.02-2.36-2.25-2.02-.35-4.01,0-6.01.14-.89.07-1.82-.08-2.68.33-1.68.79-2.64,2.61-2.32,4.63.77,4.82,1.33,9.68,2.07,14.5.56,3.68,1.29,7.36,1.96,11.04.58,3.22.5,6.53,1.3,9.73.58,2.33,1.65,4.56,1.76,6.99.18,3.83,1.21,7.55,1.39,11.39.07,1.46.71,2.9,1.08,4.35.28,1.07.47,2.16.47,3.27,0,2.66-1.91,4.68-4.57,4.72-1.51.02-2.99.16-4.46.51-1.29.31-2.52-.43-2.72-1.75-.96-6.43-2.73-12.73-3.16-19.26-.18-2.73-.87-5.45-1.46-8.14-.46-2.09-.64-4.2-.97-6.3-.64-4.07-.73-8.25-2.29-12.15-.71-1.77-.3-3.69-.67-5.5-.84-4.05-.84-8.25-2.13-12.22-.35-1.07-.28-2.19-.32-3.3Z"/><path d="m495.97,122.56c0-4.94.47-9.84.85-14.76.13-1.61.08-3.23.05-4.85-.05-2.57.09-5.13.38-7.68.09-.78-.16-1.31-.76-1.71-.99-.67-2.04-1.2-3.29-1.16-2.24.06-4.49-.2-6.71.42-2,.56-2.44.93-2.6,2.95-.28,3.38-.47,6.77-.77,10.14-.19,2.17-.21,4.31-.05,6.49.28,3.82-.27,7.64-.49,11.46-.14,2.43-2.32,4.08-4.72,3.87-1.02-.09-2.05-.08-3.07.07-2.91.41-4.62-1.16-4.73-4.12-.15-3.73.54-7.39.85-11.08.21-2.49.14-4.97.13-7.45,0-6.6.61-13.15,1.1-19.72.08-1.12-.13-2.2-.12-3.31.02-6.43.27-12.85,1.09-19.24.28-2.22-.02-4.51.75-6.68.69-1.92,1.2-3.94,3.07-5.16.23-.15.42-.36.59-.58,2.9-3.6,6.81-4.96,11.27-5,5.38-.05,10.71.53,16.02,1.3,1.21.17,2.43.3,3.65.33,1.3.04,2.21.75,3.12,1.52.49.41.52.98.43,1.53-1.16,7.05-.52,14.18-.99,21.26-.27,4.17-1.08,8.34-.83,12.5.47,7.82-.66,15.5-1.39,23.23-.27,2.86-.27,5.75-.34,8.63-.09,3.55-.2,7.1-.74,10.61-.33,2.2-.92,2.69-3.1,2.71-2.17.02-4.34-.14-6.49-.43-1.63-.22-2.15-.87-2.19-2.54-.03-1.18,0-2.37,0-3.55Zm-4.09-41.57c1.46.11,3.1,0,4.71-.48,1.38-.41,1.88-.91,1.9-2.33.08-5.28.29-10.56.51-15.84.09-2.01-.97-3.18-2.97-3.63-2.24-.5-4.53-.63-6.79-.91-.47-.06-1-.14-1.38.18-1.49,1.27-2.9,2.59-2.57,4.86.38,2.68-.09,5.34-.18,8.02-.08,2.36-.71,4.68-.55,7.07.08,1.23.62,1.95,1.75,2.38,1.74.66,3.54.73,5.57.69Z"/><path d="m142.24,217.35c-.34,1.64-.78,3.22-2.56,3.96-1.46.61-2.82,1.36-4,2.48-.92.87-3.55.22-4.34-1.17-1.35-2.36-2.98-4.54-4.39-6.87-1.38-2.29-2.87-4.57-4.63-6.66-1.66-1.98-3.04-4.21-4.4-6.43-.97-1.59-2.1-3.05-3.26-4.49-.78-.96-3.79-1.03-4.84.03-1.35,1.36-3.02,2.11-4.6,3.05-1.96,1.18-2.29,3.6-1.03,5.48,1.77,2.64,3.81,5.12,5.32,7.94.73,1.36,1.96,2.32,2.74,3.69,1.33,2.36,3.02,4.51,4.51,6.78,1.32,2.01,2.58,4.06,3.83,6.11.37.61.3,1.26-.06,1.91-.77,1.4-1.99,2.34-3.27,3.2-.98.66-2.03,1.2-2.94,1.97-1.07.9-2.07-.08-3.09-.32-.28-.07-.58-.3-.76-.54-1.36-1.82-2.7-3.65-4.03-5.49-.39-.54-.68-1.16-1.08-1.69-1.84-2.51-3.55-5.12-5.19-7.76-1.77-2.84-3.56-5.66-5.52-8.38-1.91-2.65-3.85-5.28-5.56-8.05-1.22-1.98-2.52-3.9-3.8-5.84-2.03-3.09-4.1-6.15-6.21-9.18-1.41-2.03-2.9-4-4.39-5.97-.48-.64-.92-1.26-1.18-2.03-.48-1.42-1.05-2.81-1.54-4.23-.76-2.21-.66-4.44.02-6.63.55-1.76,1.08-3.55,2.08-5.14.23-.36.45-.77.77-1.04,2.07-1.7,4.11-3.42,6.47-4.74,1.41-.79,2.76-1.7,4.02-2.71,2.21-1.78,4.86-2.9,6.94-4.9.88-.84,2.15-1.31,3.29-1.83,1.17-.53,3.36.29,3.9,1.46.56,1.2,1.26,2.27,2.19,3.21.22.22.45.47.57.75,1.04,2.46,2.94,4.36,4.32,6.61.96,1.56,2.16,2.97,3.19,4.51,1.44,2.15,2.87,4.33,4.29,6.49,1.36,2.07,2.65,4.21,4.13,6.18,1.86,2.48,3.15,5.32,5.25,7.66,1.32,1.46,2.29,3.27,3.39,4.94,1.75,2.66,3.52,5.31,5.21,8,1.38,2.2,3.01,4.22,4.28,6.48.41.73.85,1.42,1.59,1.88.1.06.21.13.27.23,1.32,2.08,2.64,4.16,3.94,6.26.13.22.1.54.15.84Zm-57.57-41.56c.3,1.29.45,2.81,1.49,4.01,1.83,2.13,3.07,4.67,4.6,7.01,1.19,1.81,2.72,3.25,4.05,4.9.49.61,1.16.68,1.93.42,1.48-.49,2.79-1.23,4-2.22.9-.74,2.01-1.23,2.98-1.91,1.79-1.27,2.08-3.44.79-5.17-1.27-1.7-2.46-3.49-3.51-5.31-1.41-2.46-3.39-4.55-4.52-7.18-.15-.35-.47-.63-.76-.9-1.61-1.51-3.18-1.48-4.71.09-.56.57-1.17,1.02-1.91,1.36-1.7.76-2.94,2.09-4.09,3.51-.28.35-.36.78-.34,1.4Z"/><path d="m203.09,104.63c-.23-2.61.53-5.06,1.65-7.31,1.06-2.13,2.96-3.67,4.81-5.15,1.68-1.35,3.76-1.92,5.72-2.75,4.43-1.9,9.11-3.13,13.52-5.05,1.4-.61,2.86-.61,4.3-.64,1.17-.03,1.93.92,2.26,1.97.89,2.81,2.65,5.31,2.97,8.33.05.48.34.99.67,1.37,1.18,1.37,1.66,3.02,2.08,4.71.3,1.2.77,2.31,1.49,3.33,1.07,1.53,1.18,3.43,1.89,5.08,1.63,3.8,2.63,7.83,4.34,11.6.41.89.77,1.83.99,2.78.83,3.59,3.05,6.66,3.78,10.31.24,1.22,1.39,2.25,1.71,3.47,1,3.92,3.22,7.35,4.28,11.26.7,2.57,2.11,4.9,2.82,7.52.63,2.34-.32,3.94-2.24,5.01-1.55.86-3.31,1.3-5.03,1.72-1.79.43-3.79-.86-4.41-2.58-1.84-5.03-3.85-10.01-5.53-15.09-1.24-3.75-3.08-7.26-4.23-11.04-.58-1.91-1.99-2.7-4.36-2.16-3.01.68-5.92,1.7-8.21,3.95-.53.52-.55,1.01-.36,1.7,1.3,4.76,3.47,9.21,4.93,13.93,1.53,4.92,3.59,9.67,5.41,14.5.76,2.01-.47,4.35-2.54,4.92-1.66.46-3.4.7-4.91,1.65-.5.32-3.02-.85-3.5-1.54-.07-.1-.15-.19-.18-.3-.87-3.54-2.96-6.6-3.99-10.08-.51-1.75-1-3.49-2-5.04-.11-.16-.23-.34-.26-.53-.68-3.68-2.65-6.92-3.61-10.5-.33-1.23-.7-2.42-1.36-3.52-1.16-1.93-1.41-4.17-2.14-6.25-.12-.33-.13-.75-.33-1.01-2.14-2.73-2.15-6.42-4.18-9.22-.94-1.31-.96-3.09-1.62-4.55-1.79-3.92-2.76-8.13-4.38-12.11-.36-.88-.17-1.79-.2-2.69Zm12.81-.02c-.03,1.05.24,1.95.51,2.87.89,3.08,2.28,5.96,3.4,8.94.46,1.21.68,2.52,1.13,3.73.77,2.04,2.91,2.96,5,2.45,2.15-.53,3.85-1.96,5.89-2.71,2.21-.81,2.57-1.7,2.19-4.03-.21-1.28-1.17-2.26-1.39-3.5-.73-4-2.87-7.48-4.13-11.28-.22-.68-.58-1.32-1.34-1.56-1.41-.44-2.82-.74-4.26-.05-1.78.85-3.6,1.62-5.35,2.51-1.07.54-1.89,1.34-1.65,2.63Z"/><path d="m331,136.9c-.06,2.92-.41,3.41-3.15,3.72-2.03.23-3.95,1.1-6.06.83-1.56-.2-2.83-1.02-2.96-2.63-.39-4.77-2.85-9.02-3.28-13.78-.09-.96-.57-1.88-1-2.77-.64-1.32-1.11-2.71-1.29-4.17-.34-2.8-1.19-5.47-1.91-8.17-.31-1.15-2.22-2.11-3.53-1.7-2.71.85-5.41,1.74-8.07,2.72-1.48.54-1.64,1.09-1.5,2.63.14,1.57.77,2.93,1.39,4.35.95,2.21,1.21,4.65,1.72,6.99.37,1.7.8,3.34,1.37,4.99.74,2.15,1.04,4.45,1.5,6.69.33,1.66.64,3.33,1.2,4.94.75,2.15-.65,4.54-2.99,5.06-1.73.39-3.49.68-5.24.96-1.47.23-3.17-1.26-3.8-3.15-1.08-3.24-1.16-6.71-2.16-9.94-1.32-4.27-1.68-8.78-3.1-12.97-1.09-3.2-1.51-6.54-2.61-9.68-1.3-3.7-2.11-7.5-3.04-11.28-1.22-5.01-2.63-9.97-3.48-15.07-.25-1.48-.83-2.87-1.08-4.36-.49-2.97.22-5.68,1.42-8.37,1.89-4.21,5.18-6.49,9.64-7.29,1.17-.21,2.26-.66,3.32-1.23,1.44-.78,3.05-1.07,4.66-1.28,2.21-.29,4.29-1,6.37-1.74,1.37-.48,2.83-.69,4.27-.97,2.05-.4,3.75.51,4.64,2.4.48,1.02.68,2.1.78,3.2.19,2.18.7,4.26,1.67,6.25,1.17,2.37,1.25,5.04,1.86,7.56.24,1,.47,2,.89,2.94,1.44,3.3,1.48,6.93,2.39,10.35.25.96.49,1.9.9,2.81,1.01,2.19.89,4.63,1.5,6.92.7,2.67,1.17,5.39,1.97,8.04.4,1.32.67,2.68.91,4.04.35,1.95.74,3.88,1.67,5.65.18.34.33.73.37,1.12.45,4.44,1.9,8.61,3.35,12.78.31.9.57,1.81.5,2.62Zm-34.21-38.16c1.89-.33,3.75-.43,5.44-1.01,1.78-.62,3.7-1.17,5.03-2.72.36-.42.56-.77.39-1.37-.46-1.67-.8-3.37-1.27-5.04-.99-3.57-1.86-7.16-2.69-10.77-.54-2.35-2.1-3.39-4.47-2.94-2.9.55-5.78,1.26-8.17,3.21-.82.67-1.11,1.3-.78,2.33.49,1.54.9,3.11,1.23,4.69.81,3.77,1.49,7.58,2.79,11.23.48,1.36,1.5,2.37,2.51,2.39Z"/><path d="m426.78,86.66c0-11.37.01-22.74-.01-34.11,0-1.74.13-3.47.25-5.2.11-1.51.77-2.24,2.25-2.41,2.15-.24,4.31-.34,6.49-.27,2.6.08,5.21-.17,7.81-.08,3.5.11,7.01-.18,10.48.58,2.31.5,4.28,1.68,5.96,3.21,1.59,1.45,2.71,3.26,3.67,5.27,1.22,2.55,1.44,5.1,1.44,7.79-.01,16.54-.1,33.08.08,49.62.04,3.82-1.28,7.04-3.26,9.9-1.71,2.46-4.08,4.55-7.24,5.42-2.5.69-4.98,1.1-7.57,1.07-4.82-.05-9.63-.04-14.45-.01-1.15,0-2.29-.12-3.41-.3-1.37-.21-1.8-1.42-2.25-2.5-.29-.7-.22-1.48-.22-2.23,0-11.92,0-23.84,0-35.77h0Zm12.03-.2c0,7.3,0,14.6,0,21.91,0,1.1,0,2.21.06,3.31.09,1.34,1.09,2.54,2.24,2.72,2.67.43,5.36.28,8.03.2,1.61-.05,3.59-1.71,3.67-2.87.11-1.61.23-3.22.23-4.84-.02-14.05-.01-28.1-.01-42.16,0-.95.03-1.9-.02-2.84-.14-2.8-1.62-4.81-3.96-4.97-2.71-.18-5.44-.32-8.13.35-.9.22-1.47.73-1.67,1.63-.28,1.23-.45,2.48-.44,3.75.01,7.93,0,15.87,0,23.8Z"/><path d="m763.16,220.85c-3.04.27-6.13-1.7-9.25-3.54-.81-.48-1.56-1.06-2.4-1.51-4.23-2.29-7.48-5.6-9.29-10.03-1.44-3.53-.95-7.04,1.07-10.42,1.62-2.7,3.21-5.44,5.03-7.98,1.76-2.46,2.64-5.34,4.46-7.77,1.35-1.8,2.65-3.71,3.69-5.75.5-.98,1.07-1.93,1.92-2.68.23-.2.49-.45.59-.73,1.01-2.65,2.91-4.77,4.28-7.21,1.32-2.36,2.65-4.73,4.23-6.96,1.63-2.31,2.78-4.96,4.4-7.29,1.62-2.34,3.37-4.72,6.36-5.51,1.79-.47,3.37-1.5,5.27-1.69,1.26-.13,2.48-.16,3.61.29,2.77,1.09,5.63,1.91,8.13,3.72,1.93,1.4,4.02,2.62,5.96,4.03,1.37.99,2.4,2.25,3.32,3.66,2.5,3.81,3.11,7.92,1.54,12.15-.74,1.99-1.77,3.94-3.09,5.68-1.8,2.39-3.2,5.06-4.94,7.48-1.62,2.25-2.73,4.78-4.28,7.07-1.57,2.31-2.87,4.8-4.28,7.22-.12.2-.16.48-.33.62-2.01,1.81-3.05,4.3-4.45,6.51-1.6,2.52-3.17,5.07-4.7,7.65-1.72,2.9-3.07,6.05-5.6,8.44-2.95,2.78-6.29,4.52-11.27,4.55Zm30.6-59.89c.16-1-.61-1.54-1.29-2.15-2.08-1.86-4.62-2.96-7.07-4.2-.26-.13-.56-.19-.79-.01-1.05.8-2.44,1.19-3.17,2.4-1.17,1.96-2.52,3.82-3.65,5.79-2.27,3.96-4.77,7.75-7.3,11.53-1.46,2.19-2.78,4.47-4.21,6.67-2.03,3.11-3.8,6.42-5.86,9.54-.39.59-.7,1.24-.93,1.9-.29.82-.72,1.49-1.42,1.98-.77.55-1.26,1.29-1.56,2.17-.25.75-.61,1.46-1.1,2.09-.74.95-.82,2.12-1.11,3.22-.14.55.23.86.62,1.16,2.65,2.07,5.5,3.79,8.66,4.97.38.14.69.17.98-.1.91-.86,2.03-1.53,2.72-2.62,1.46-2.29,2.96-4.55,4.31-6.9,1.29-2.26,2.86-4.33,4.24-6.54,1.42-2.27,2.83-4.55,4.14-6.87,2.51-4.42,5.35-8.62,8.2-12.82.55-.82,1.17-1.6,1.49-2.54.29-.84.82-1.5,1.36-2.19,1.45-1.89,2.61-3.93,2.75-6.48Z"/><path d="m726.48,197.82c-3.02.04-5.89-.34-8.34-2.38-1.16-.97-2.79-1.03-4.06-1.89-2.43-1.65-5.25-2.73-7.13-5.16-2.07-2.67-3.25-5.57-3.12-9.03.16-4.21,1.89-7.79,3.83-11.41,1.35-2.53,2.98-4.93,3.92-7.67.29-.86.8-1.63,1.36-2.35.24-.31.55-.6.69-.95,1.14-2.78,3.03-5.15,4.19-7.91.37-.87.79-1.72,1.39-2.47.62-.78,1.05-1.66,1.35-2.62.37-1.17.86-2.28,1.58-3.29.53-.74.94-1.55,1.25-2.41,1.01-2.83,2.54-5.5,4.14-7.93,1.85-2.81,3.3-5.89,5.48-8.51,1.04-1.25,2.37-1.99,3.73-2.63,1.59-.75,3.22-1.48,5-1.8,1.78-.32,3.46-.04,5.1.61,1.65.66,3.4,1.18,4.89,2.06,2.4,1.42,4.92,2.62,7.32,4.02.98.57,1.99,1.3,2.78,2.17,2.34,2.56,3.61,5.58,3.73,9.07.1,3.09-.21,6.07-2.09,8.69-.32.44-.44,1.01-.68,1.51-1.77,3.55-3.71,7-5.74,10.41-1.35,2.28-2.71,4.6-3.75,7.09-1.11,2.65-2.55,5.15-3.88,7.7-1.81,3.49-4,6.79-5.32,10.53-.08.22-.14.48-.3.64-2.43,2.61-3.37,6.12-5.38,8.97-1.07,1.52-2.19,3-3.78,4.03-.4.26-.87.46-1.15.82-1.44,1.84-3.53,1.9-5.57,2.11-.47.05-.95,0-1.42,0Zm-1.32-12.32c1.25.03,3.1-.86,3.63-1.89,1.16-2.23,2.26-4.49,3.55-6.65.46-.77.56-1.79,1.11-2.47,1.88-2.36,2.73-5.24,4.09-7.85,1.6-3.07,3.42-6.04,4.75-9.25.44-1.07,1.55-1.69,1.97-2.79,1.3-3.4,3.49-6.33,5.04-9.61,1.23-2.6,2.42-5.23,3.46-7.91.29-.75.13-1.33-.44-1.92-1.41-1.46-2.81-2.86-4.82-3.51-1.23-.4-2.41-.98-3.61-1.48-.63-.27-1.18-.07-1.63.37-1.01.99-2.09,1.97-2.75,3.23-2.02,3.83-3.97,7.69-5.94,11.55-.37.74-.66,1.52-1.02,2.26-1.23,2.51-2.88,4.8-3.87,7.43-.07.18-.21.34-.35.47-1.12.97-1.67,2.27-2.17,3.61-.25.66-.54,1.32-.92,1.92-1.8,2.83-3.1,5.93-4.66,8.88-.6,1.15-1.08,2.36-1.86,3.42-1.03,1.41-1.33,3.2-2.31,4.65-.1.14-.13.41-.07.57.65,1.53.96,3.27,2.83,3.99,1.5.58,2.99,1.23,4.27,2.27.48.39,1.04.73,1.72.72Z"/><path d="m687.54,138.86c-1.15-.26-1.94.32-2.29,1.43-.98,3.05-3.34,5.45-4.03,8.64-.14.66-.66,1.24-1.01,1.86-.27.48-.69.92-.82,1.43-.88,3.42-2.78,6.43-3.79,9.8-.86,2.88-2.65,5.36-3.65,8.2-.24.68-.83.96-1.58,1.03-2.6.27-4.79-.71-6.83-2.15-.9-.63-1.94-1.06-2.65-1.96-.34-.42-.62-.81-.42-1.38.55-1.51,1-3.08,1.93-4.43.07-.1.15-.2.18-.31.92-3.54,3.04-6.56,4.23-9.99.45-1.31.93-2.6,1.84-3.68.03-.03.06-.06.07-.1,1.03-3.24,3.27-5.92,4.22-9.2.34-1.18.76-2.32,1.45-3.36.17-.26.38-.53.46-.82,1.05-3.82,3.4-7.12,4.43-10.96.15-.56.36-1.15.69-1.62.97-1.38,1.62-2.88,2.08-4.49.27-.95.69-1.83,1.32-2.63.43-.54.73-1.23.96-1.89.63-1.83,1.22-3.67,2.53-5.18.18-.2.3-.47.37-.73.95-3.61,3.05-6.75,4.18-10.29.34-1.07.99-1.91,1.99-2.55,1.45-.92,2.76-.46,3.96.31,1.51.97,3.06,1.8,4.73,2.43,1.01.38,1.45.97,1.23,2.17-.43,2.4-1.08,4.68-2.58,6.65-.05.06-.1.13-.13.2-.99,2.9-2.38,5.62-3.78,8.34-.69,1.35-1.14,2.84-1.94,4.16-1.2,2.01-1.59,4.36-2.63,6.45-.48.97.65,3.19,1.73,3.72.95.47,1.96.84,2.96,1.19.9.31,1.78.67,2.58,1.18,2.33,1.48,4.64.85,5.64-1.7,1.32-3.38,2.8-6.71,4.33-9.97,1.35-2.86,2.13-6.03,4.17-8.58.71-.89.99-2.06,1.24-3.18.43-1.9,1.75-2.81,3.5-3.29.44-.12.88-.1,1.27.11,1.56.88,3.3,1.31,4.9,2.08,1.73.83,2.7,3.04,1.83,4.73-1.87,3.61-3.19,7.46-4.82,11.17-1.62,3.67-2.98,7.5-4.78,11.06-1.54,3.05-2.57,6.31-4.32,9.3-1.42,2.42-2.61,5.1-3.6,7.78-1.43,3.85-3.25,7.53-4.84,11.3-.22.51-.57.99-.66,1.51-.66,3.77-3.11,6.75-4.47,10.22-.85,2.17-2.15,4.19-2.93,6.43-.56,1.61-2.04,2.1-3.48,2.55-.45.14-.85-.09-1.2-.37-1.16-.93-2.48-1.6-3.91-1.9-2.79-.6-3.11-2.72-2.63-5.16.2-1.02.71-2,1.37-2.86.61-.79,1.09-1.65,1.37-2.61,1.02-3.55,2.96-6.7,4.34-10.09.64-1.57,1.42-3.08,1.87-4.72.72-2.6,2.38-4.79,3.17-7.38.6-1.99-.02-4-1.87-5.01-.72-.39-1.51-.68-2.3-.92-1-.3-1.94-.66-2.72-1.37-.67-.61-1.47-.72-2.41-.65Z"/><path d="m630.47,81.02c.06,3.14-.22,5.62-1.07,7.98-1.07,2.99-1.62,6.09-2.18,9.2-.26,1.44-.64,2.84-1.34,4.15-.6,1.12-.88,2.36-1.07,3.62-.15.98-.28,1.96-.49,2.92-.56,2.61-1.95,3.12-4.62,2.75-1.61-.22-3.21-.77-4.83-1.14-1.61-.36-1.92-.73-2.23-2.32-.24-1.23-.23-2.44.13-3.63,2.09-6.87,3.2-13.98,5.26-20.85.36-1.21.1-2.16-.8-3.11-1.38-1.45-2.94-2.32-4.95-2.46-.81-.06-1.63-.32-2.41-.57-2.88-.92-5.23.42-5.62,3.37-.49,3.7-1.48,7.27-2.51,10.83-.75,2.59-.91,5.29-1.57,7.89-.44,1.76-1.17,3.44-1.37,5.26-.11.97.02,1.74.79,2.44,1.43,1.29,2.41,2.99,3.94,4.23,2.36,1.92,4.85,3.63,7.31,5.41,1.86,1.35,3.7,2.81,4.86,4.9.34.62.73,1.21,1.13,1.8,1.59,2.33,2.06,4.93,1.7,7.68-.49,3.67-1.78,7.11-3.33,10.45-.13.28-.3.56-.51.79-3.57,3.89-8.02,5.45-13.22,4.82-4.2-.5-8.32-1.42-12.38-2.61-2.42-.71-4.87-1.34-7.42-1.46-1.12-.05-2.05-.6-2.89-1.25-1.59-1.22-1.94-2.69-1.12-4.49.46-1.01.93-2.02,1.06-3.13.16-1.42,1.07-2.43,1.8-3.54.3-.46.7-.63,1.32-.44,2.49.75,5.02,1.37,7.61,1.69,2.88.35,5.57,1.47,8.35,2.18,1.27.33,2.56.51,3.85.6,1.84.14,3.29-1.21,3.84-2.97.88-2.84-1.14-4.36-2.76-5.69-4.02-3.3-8.19-6.39-11.82-10.16-1.78-1.85-3.29-3.88-4.18-6.25-.85-2.26-.83-4.7-.17-7,1.3-4.52,2-9.17,3.25-13.69,1.15-4.15,1.8-8.42,2.96-12.54.74-2.61,1.99-5.33,4.37-7.15.88-.67,1.74-1.37,2.54-2.13,1.75-1.65,3.96-1.91,6.16-1.99,5.03-.18,9.89.68,14.57,2.58,1.86.75,3.82,1.2,5.33,2.69,3.08,3.02,5.2,6.43,4.71,10.33Z"/><path d="m195.2,150.44c3.16.13,6.36-.42,9.46.16,3.98.73,7.54,2.44,10,5.91,3.22,4.54,4.85,9.49,3.56,15.04-.83,3.61-2.82,6.4-6.12,8.44-6.29,3.88-13.21,6.41-19.85,9.54-1.7.8-4.14-.25-4.85-2.16-.7-1.89-1.27-3.81-2.55-5.43-.43-.55-.12-1.11.31-1.59,1.64-1.79,3.71-2.85,5.93-3.78,3.52-1.48,7.13-2.77,10.43-4.73.95-.56,2.03-.89,2.97-1.45,1.54-.9,1.87-3.24,1.1-4.86-1.59-3.38-4.55-3.77-7.59-3.38-5.06.65-10.11.24-15.12-.05-5.08-.29-8.67-3.46-10.82-8.08-.6-1.28-.97-2.67-1.91-3.78-.17-.21-.28-.48-.37-.74-1.16-3.49-3.13-6.61-4.66-9.93-1.31-2.84-2.62-5.71-4.05-8.51-2.34-4.62-2.85-9.6-.29-14.34,1.5-2.77,3.6-5.2,6.82-6.23,1.61-.51,2.68-1.91,4.31-2.43,1.54-.49,2.98-1.22,4.32-2.17.74-.53,1.74-.49,2.63-.61,2.11-.28,4.33-.63,6.33.1,2.93,1.07,5.93,2.23,7.74,5.08,1.4,2.19,2.79,4.39,3.6,6.9.22.68.6,1.28,1.02,1.86.39.54.83,1.09,1.03,1.71,1.14,3.46,3.3,6.45,4.43,9.92.4,1.22,1.09,2.36,1.7,3.51.68,1.27.76,2.62.74,4.02-.01,1.02-.46,1.68-1.36,1.99-1.69.59-3.22,1.49-4.79,2.32-1.99,1.04-4.23.32-5.29-1.68-.24-.45-.42-.94-.59-1.42-1.55-4.27-3.9-8.18-5.57-12.39-1.05-2.65-2.4-5.13-3.64-7.67-1.12-2.31-2.84-2.95-5.06-1.6-1.53.94-3.13,1.65-4.82,2.23-2.16.75-3.19,3.62-2.15,5.65,1.32,2.56,2.4,5.23,3.61,7.83,1.4,3.03,2.22,6.33,4.18,9.11.49.7.81,1.55,1.06,2.37.51,1.65,1.63,2.86,2.78,4.06.87.91,1.92,1.29,3.19,1.27,2.72-.04,5.45-.01,8.17-.01Z"/><path d="m622.2,143.83c-.18-1.32.32-2.71,1.05-4.06.81-1.5,1.41-3.09,1.61-4.8.23-2.01,1.24-3.73,2.06-5.52.35-.76.58-1.55.75-2.36.42-2.01.94-3.99,1.78-5.88.5-1.12.9-2.28,1.12-3.49.71-3.94,2.59-7.53,3.51-11.42.91-3.83,2.3-7.54,3.46-11.3.76-2.46,1.58-4.99,2.7-7.29,1.48-3.03,3.58-5.8,7.01-7.04,1.52-.55,2.71-1.71,4.38-2.01,1.79-.32,3.47-.07,5.1.55,1.81.69,3.62,1.35,5.52,1.74,3.09.64,5.96,2.05,8.5,3.76,2.42,1.63,4.35,3.98,5.27,7.05.83,2.78.66,5.4.06,8.15-.83,3.79-2.41,7.35-3.35,11.1-.51,2.03-1.1,4.02-2.14,5.87-.44.77-.69,1.7-.83,2.58-.42,2.67-1.65,5.01-2.85,7.36-.8,1.58-1.42,1.8-3.14,1.56-2.64-.36-4.95-1.54-7.26-2.76-.89-.47-1.2-1.27-.79-2.09,1.75-3.48,2.01-7.46,3.72-10.96.77-1.56.9-3.35,1.34-5.03.77-2.94,2.2-5.66,2.84-8.65.31-1.44.18-2.72-.41-4.01-.32-.69-.83-1.14-1.52-1.41-2.62-1.02-5.4-1.47-8.05-2.39-.65-.23-.99.3-1.33.75-1.84,2.49-2.91,5.31-3.55,8.31-.53,2.48-1.22,4.9-2.21,7.24-.66,1.54-.77,3.23-1.33,4.78-1.68,4.59-2.7,9.4-4.77,13.85-.39.85-.6,1.8-.79,2.72-.34,1.64-.89,3.19-1.68,4.66-.83,1.55-1.16,3.26-1.56,4.95-.21.88-.41,1.77-.71,2.62-1.01,2.87-.18,5.02,2.73,5.84,3.76,1.06,7.36,2.59,11.16,3.57,2.53.66,4.83,2.09,7.35,2.89.67.21,1.02.81,1.02,1.59-.03,2.92-.87,5.61-2.36,8.08-.9,1.48-2.1,1.95-3.72,1.26-4.3-1.83-8.93-2.6-13.23-4.38-.98-.4-2.03-.64-3.06-.93-3.57-1-6.98-2.26-9.5-5.19-.58-.67-1.06-1.36-1.35-2.2-.36-1.05-.88-1.99-1.55-2.9-.97-1.33-1.02-2.95-.99-4.78Z"/><path d="m526.01,130.05c.45-5.03,1.26-9.65,1.92-14.3.56-3.96.95-7.98,1.19-12,.17-2.76.28-5.52,1.14-8.18.23-.72.28-1.46.28-2.22.04-4.37-1.12-8.59-1.6-12.89-.62-5.62-2.51-11-3.19-16.59-.43-3.51-1.35-6.88-2.15-10.29-.28-1.21-.03-2.35.13-3.51.08-.61.56-.88,1.15-.72,2.39.63,4.87.34,7.28.8,1.67.32,2.72,1.17,3.34,2.65,1.1,2.62,1.99,5.29,2.21,8.18.14,1.79.68,3.56,1.06,5.33.09.41.2.91.72.99.48.07.63-.4.84-.72.11-.16.18-.4.33-.48,2.46-1.32,2.57-4.01,3.64-6.14.88-1.76,1.76-3.52,2.74-5.22,1.07-1.86,2.96-2.11,4.84-1.99,1.56.1,3.11.53,4.66.81,1.06.19,1.81.94,2.68,1.46.3.18.36.48.23.83-.82,2.29-1.52,4.59-2.75,6.75-1.54,2.73-2.66,5.7-3.94,8.58-.51,1.15-.97,2.33-1.84,3.29-.16.17-.32.37-.39.59-.9,2.87-2.55,5.38-3.86,8.05-.41.85-.65,1.78-1.18,2.57-1.76,2.62-2.92,5.66-2.93,8.65-.02,4.92-1.94,9.58-1.48,14.54.18,2-.9,3.98-.94,6.05,0,.12-.05.23-.05.35.13,3.39-.55,6.66-1.36,9.92-.27,1.1-.39,2.27-.34,3.4.07,1.53-.5,2.85-1.04,4.2-.33.81-.97,1.14-1.81.95-2.61-.6-5.19-1.33-7.87-1.62-1-.11-1.68-1.31-1.66-2.08Z"/><path d="m289.07,148.17c-.17.97-.97,1.53-1.74,2.05-1.64,1.11-3.39,1.95-5.39,2.3-1.98.35-3.88,1.02-5.73,1.85-1.96.88-4.07,1.25-6.17,1.62-.99.17-1.86-.92-2.54-2.25-1.77-3.47-1.95-7.39-3.27-10.95-1.84-4.93-2.58-10.17-4.55-15.05-.35-.87-.46-1.83-.65-2.76-.27-1.36-.62-2.7-1.37-3.89-1.39-2.21-1.37-4.84-2.15-7.23-.28-.87-.56-1.71-1.03-2.51-.46-.78-.92-1.56-1.01-2.5-.21-2.14-.79-4.19-1.71-6.13-1.19-2.53-1.31-5.35-2.21-7.97-1.39-4.07-2.57-8.2-3.61-12.38-.19-.75-.65-1.43-.96-2.15-.37-.88-.18-1.58.63-2.16,1.82-1.3,3.77-2.29,5.95-2.79.46-.11.94-.15,1.4-.25,1.86-.4,2.49.12,3.45,1.81,1.75,3.07,2.36,6.49,3.47,9.76,1.2,3.53,1.84,7.2,3.07,10.67,1.15,3.21,1.73,6.57,2.8,9.77,1.15,3.44,1.89,7.03,3.27,10.35,2,4.83,3.03,9.94,4.89,14.8.74,1.94.92,4.07,1.74,6.02.93,2.18,2.08,2.81,4.37,2.38,1.38-.26,2.65-.76,3.81-1.54.55-.37,1.01-.38,1.4.23,1.68,2.59,3.29,5.21,3.71,8.35.02.16.06.31.1.55Z"/><path d="m788.45,242.24c-.51.06-.97-.1-1.26-.5-.83-1.15-2.13-1.75-3.1-2.67-1.8-1.71-3.98-2.82-5.88-4.34-.4-.32-.82-.66-1.28-.83-1.74-.63-2.62-2.07-3.45-3.56-.38-.69-.29-1.28.14-1.98,2.37-3.85,5.23-7.37,7.79-11.09,2.33-3.4,4.73-6.77,7.42-9.93,1.5-1.75,2.56-3.87,4.01-5.67,1.78-2.21,3.11-4.73,4.97-6.9,1.53-1.78,2.72-3.86,4.11-5.76,1.26-1.72,2.63-3.35,3.88-5.07,1.53-2.1,2.97-4.26,4.47-6.37,1.68-2.37,3.12-4.91,5.27-6.93.25-.24.47-.55.6-.87.52-1.28,1.37-2.29,2.46-3.12.19-.14.34-.33.51-.49,1.96-1.96,2.81-2.01,4.92-.18,1.08.93,2.15,1.84,3.32,2.66,1.48,1.04,1.84,3.66.73,5.1-2.05,2.66-3.73,5.58-5.76,8.23-2.67,3.49-5.03,7.2-8.02,10.47-1.57,1.72-2.58,4.03-4.02,5.95-2.71,3.63-5.21,7.42-8.01,10.98-1.48,1.88-2.97,3.76-4.25,5.81-1.12,1.79-2.45,3.48-3.76,5.15-1.35,1.73-2.13,3.87-3.94,5.28-.64.5-.17,2.45.69,3.46.65.77,1.49,1.28,2.36,1.76,2.2,1.19,2.76,3.94,1.19,5.92-.98,1.24-1.93,2.48-2.45,4.02-.3.88-1,1.38-2.01,1.38-.55,0-1.1.07-1.65.11Z"/><path d="m163.98,203.99c.27.97-.3,1.75-1.28,2.32-1.97,1.16-3.82,2.51-5.71,3.77-2.21,1.48-4.68,2.55-6.7,4.33-1.53,1.35-4.07.77-5.03-.97-1.44-2.62-3.08-5.12-4.92-7.48-.62-.79-1.06-1.75-1.46-2.69-.33-.79-.81-1.42-1.41-2.01-.71-.69-1.09-1.64-1.68-2.4-1.5-1.95-2.5-4.17-3.73-6.27-1.64-2.82-3.2-5.69-5.03-8.38-1.72-2.53-2.97-5.35-5.01-7.7-1.35-1.56-2.45-3.38-3.39-5.22-1.51-2.96-3.33-5.71-5.05-8.54-1.49-2.45-3.24-4.75-4.5-7.34-.05-.11-.1-.22-.18-.31-1.69-1.88-2.74-4.18-4.18-6.23-.16-.23-.41-.45-.34-.72.32-1.21.39-2.67,1.58-3.33,2.05-1.15,4.01-2.51,6.27-3.22,1.64-.52,2.08-.41,2.96,1.03,1.03,1.68,2.05,3.39,3.15,5,1.64,2.4,2.8,5.07,4.65,7.36,1.6,1.97,2.73,4.31,4.19,6.4,1.89,2.68,3.07,5.76,4.98,8.44,1.31,1.84,2.45,3.85,3.64,5.8.43.71.87,1.41,1.35,2.09,3.01,4.24,5.59,8.75,8.21,13.24,1.11,1.9,2.47,3.63,3.43,5.65.81,1.68,3.47,2.09,5.08,1.15,1.29-.75,2.39-1.8,3.83-2.33.69-.25,1.21-.25,1.71.29,1.75,1.9,3.23,3.98,4.36,6.3.27.55.14,1.17.18,1.98Z"/><path d="m158.54,155.17c1.91.31,3.65.58,4.37,2.55.54,1.5,1.62,2.7,2.3,4.12.69,1.45.61,1.78-.66,2.81-1.87,1.52-3.99,2.68-5.93,4.07-2.36,1.7-5.12,2.62-7.49,4.25-1.16.79-2.18.46-3.12-.34-1.06-.9-2.04-1.94-2.53-3.23-.53-1.39-1.51-2.57-1.44-4.27.06-1.79.99-2.65,2.33-3.35,3.11-1.6,6.21-3.21,9.14-5.13.97-.64,2.11-1.03,3.04-1.47Z"/></g><path class="cls-9" d="m824.88,288.07l-.13-.13c-34.17-31.8-75.61-60.86-119.82-84.01-80.22-42.02-165.85-63.32-254.56-63.32-.5,0-1,0-1.49,0-194.16.52-325.37,103.11-372.84,147.27l-4.01,3.47h15.29c49.91-45.21,176.65-140.06,361.59-140.56.49,0,.97,0,1.46,0,87.04,0,171.09,20.91,249.84,62.16,41.53,21.75,80.53,48.79,113.18,78.4h14.77l-3.28-3.28Z"/><path class="cls-5" d="m831.83,335.33v397.68c-3.35,28.91-20.81,151.57-128.95,246.07-100.98,88.24-214.99,94.18-246.01,94.79-31.02-.6-145.02-6.55-246.01-94.79-108.13-94.5-125.6-217.16-128.93-246.07v-397.68c36.36-2.38,97.09-11.05,163.41-44.68,57.14-28.98,96.2-65.22,119.51-90.52,8.57-2.81,18.18-5.39,28.74-7.37,21.49-4.03,40.84-6.11,56.77-5.49,4.34.17,8.68.17,13.02,0,15.93-.62,35.28,1.47,56.78,5.49,10.57,1.97,20.17,4.56,28.74,7.37,23.31,25.3,62.36,61.54,119.51,90.52,66.33,33.63,127.05,42.3,163.41,44.68Z"/><line class="cls-2" x1="609.11" y1="863.87" x2="792.57" y2="863.87"/><line class="cls-2" x1="121.19" y1="863.87" x2="304.65" y2="863.87"/><text class="cls-8" transform="translate(315.5 875.92)"><tspan x="0" y="0">ESTABLISHED 1990</tspan></text><path d="m660.1,953.08c-3.71-4.49-7.06-9.23-10.7-13.79-2.17-2.72-4.31-5.45-6.47-8.18-1.2-1.52-3.54-3.36-3.57-5.45-.04-2.33,2.53-3.41,2.44-5.81-.06-1.57-1.91-4.39-3.51-4.82-1.97-.53-4.31,2.01-5.59,3.39-.85.92-1.44,1.77-1.86,2.69-.28.62-.89,1.94-.87,3.68.01,1.33.38,2.34.64,3,1.57,3.93,4.36,7.56,5.4,8.92,3.19,4.18.64,1.06,4.52,6.07,3.68,4.76,7.62,9.29,11.21,14.13,1.94,2.61,3.93,5.19,6.05,7.66,2.17,2.52,3.34,4.71,6.73,2.68,6.35-3.78-1.47-10.6-4.43-14.18Z"/><path d="m308.75,940.13c-.51-1.17-1.66-2.05-2.69-2.74-2.64-1.76-5.1-3.77-7.71-5.61-2.65-1.87-6.01-5.15-9.25-5.82-.8-.16-1.27-.13-1.63,0-.31.12-1.34.38-1.9,1.3-.15.24-.21.45-.33.8-.2.62-.15.84-.28,1.6-.14.84-.25.87-.51,2.16-.11.56-.17.84-.16.9.13,1.15,1.89,1.19,3.54,3.04.5.56.76,1.03.91,1.52.16.51.2,1.06.12,1.64-.39,2.89-3.73,6.2-5.3,8.62-4.44,6.84-9.05,13.57-13.66,20.29-1.91,2.78-3.78,5.4-5.18,8.48-.55,1.22-.82,1.68-.11,2.98.74,1.34,2.4,2.88,3.98,3.11,3.45.5,5.54-4.57,7.03-6.92,1.98-3.15,4.06-6.18,6.2-9.22,4.61-6.55,8.8-13.36,13.43-19.89,2.54-3.59,4.22-2.6,7.57-.74,3.04,1.68,3.22.51,4.83-1.76,1.04-1.47,1.94-1.82,1.11-3.73Z"/><path d="m281.87,932.79c.58-.4.84-1,1.07-1.65.24-.7.44-1.42.57-2.15.19-1.03.17-2.1.17-3.15,0-.09.02-.16.05-.23-.27-1.41-.1-2.87-.85-4.32-.57-1.1-1.36-2.08-2.22-2.97-2.11-2.18-4.99-4.56-7.61-6.08-5.74-3.34-10.71.5-14.45,4.73-2.51,2.84-4.78,5.83-7.18,8.76-2.05,2.49-4.12,4.55-5.43,7.55-2.44,5.57,3.44,13.63,5.51,18.86l-.28.1c.19,1.64-1.13,2.98-2.79,2.94-1.54-.04-2.99-1.76-4.09-2.66-2.31-1.89-6.4-7.21-9.8-6.01-3,1.05-4.49,4.64-2.69,7.12,2.13,2.94,5.94,5.19,8.65,7.63,2.83,2.54,5.75,4.08,9.66,3.73,3.93-.35,6.22-2.4,8.38-5.61,2.65-3.95,2.29-6.92.8-11.28-1.13-3.3-3.97-7.81-3.86-11.31.1-3.33,3.44-5.95,5.55-8.15,1.94-2.03,3.83-5.82,6.51-6.83,2.76-1.04,6.53,1.45,6.18,4.58-.31,2.85-4.08,6.06-5.83,8.2-1.39,1.7-4.09,4.01-4.91,6.01-.6,1.47-.09,2.04.92,3.18,1.65,1.88,3.85,3.85,6.41,2.02.97-.7,1.82-2.31,2.66-3.24,1.05-1.16,2.08-2.35,3.11-3.53,1.18-1.35,3.71-5.53,5.73-6.19.02-.01.04-.03.07-.04Z"/><path d="m343.19,959.44c-2.47,5.21-5.63,10.13-8.02,15.36-1.77,3.88-3.09,7.94-4.96,11.8-2.03,4.18-4.57,9.01-5.8,13.49-.68,2.46.68,2.47,2.46,3.83,1.68,1.28,1.83,3.05.93,4.93-2.65,5.55-6.78,3.14-11.13,1.26-1.92-.83-3.69-1.4-4.78-3.3-1.36-2.36.25-4.28,1.27-6.55,4.13-9.19,8.72-17.95,12.75-27.09,2.31-5.24,4.59-10.56,7.33-15.6,1.52-2.79,2.15-3.91,5.42-2.94,2.86.85,3.55,2.23,4.53,4.82Z"/><path d="m684.12,949.66c.4,1.75-2.47,4.18-3.93,4.69-2.39.83-4.72-2.2-6.04-3.71-4.01-4.56-7.83-9.31-11.91-13.81-1.86-2.05-3.96-3.89-5.45-6.21-1.49-2.32-3.21-4.34-5.02-6.41-1.7-1.94-3.6-3.65-5.33-5.55-1.45-1.6-4.94-4.74-4.82-6.97.09-1.8,3-4.84,4.84-4.96,1.77-.11,3.72,2.66,4.75,3.77,4.36,4.71,8.35,9.77,12.63,14.55,3.84,4.29,7.3,9.03,11.55,12.91,2.16,1.98,3.95,4.13,5.82,6.38,1.54,1.85,2.91,2.83,2.91,5.3Z"/><path d="m449.3,1029.03c1.95.42,3.63.07,4.29,2.44.57,2.04-.03,4.71-.11,6.8-.11,2.75,1.01,8.16-2.24,9.19-1.4.45-4.6.52-5.86-.43-1.65-1.25-.85-4.27-.82-6.06.04-2.69-.05-5.43.15-8.11.23-3.13,1.56-3.46,4.59-3.84Z"/><path d="m296.24,990.05c-1.17,2.51-3.53,8.09-6.83,6.39-1.31-.68-4.1-2.19-4.81-3.48-.85-1.53.04-3.48.78-4.92,1.37-2.63,3.73-5.7,6.75-4.07,2.78,1.5,4.35,2.61,4.11,6.07Z"/><path d="m369.18,989.39c.88-2.32.76-1.79,1.25-3.17,0,0,1.69-4.78,2.24-9.3.02-.2.05-.47.12-.96.26-1.99.46-2.35.37-2.91-.2-1.24-.87-2.08-1.16-2.54-2.29-3.72-6.46-5.57-10.59-6.54-4.18-.99-9.1-1.38-12.34,1.89-3.31,3.34-4.08,7.93-5.72,12.15-3.22,8.33-5.33,16.93-8.62,25.18-1.56,3.91-2.29,8.17.32,11.81,2.48,3.46,7.32,5.68,11.39,6.52,4.45.92,8.31.61,11.53-2.85,2.99-3.21,3.6-7.76,4.97-11.78.65-1.91,1.44-3.77,2.2-5.64.74-1.81,1.26-3.67,1.86-5.55.67-2.13,1.4-4.24,2.19-6.32Zm-13.55,11.27c-.63,1.99-1.33,3.94-2.1,5.88-.57,1.42-1.22,4.45-2.39,5.41-1.22,1.01-3.99.12-5.29-.45-1.29-.57-2.16-1.55-2.47-2.97-.7-3.27,2.23-8.22,3.31-11.34,1.37-3.98,2.68-7.83,4.25-11.72,1.37-3.39,1.74-8.96,4.38-11.67,2.42-2.48,8.15-.38,8.25,3.14-2.82,7.91-5.42,15.73-7.94,23.72Z"/><path d="m400.24,992.54c2.32-10.13,4.76-13.21,2.91-15.54-1.7-2.13-5.8-2.11-6.06-2.11-2.24,0-2.67,1.28-3.18,3.24-.63,2.41-1.37,4.71-2.18,7.07-.82,2.4-.87,4.99-1.56,7.43-.58,2.03-1.5,3.91-1.93,5.99-1.03,4.96-2.17,9.9-3.28,14.85-.42,1.88-.44,5.07-1.74,6.57-1.39,1.6-4.09,1.28-5.86.64-4.28-1.54-1.84-6.86-1.16-10.07.99-4.75,2.88-9.4,4.15-14.11,1.2-4.44,2.13-8.93,3.26-13.38.79-3.12,4.12-9.48.95-12.1-3.07-2.53-8-1.48-8.99,2.26l-3.58,14.99c-.39,3.26-1.79,6.43-2.29,9.74-.78,5.28-2.36,10.39-3.62,15.57-1.1,4.51-1.35,9.12,2.19,12.65,3.02,3,7.38,4.2,11.52,4.46,3.53.22,8.51-.02,10.41-3.53,2.52-4.65,3.71-10.42,5.2-15.47,1.45-4.92,2.03-6.16,3.06-10.36,1.1-4.51.82-4.59,1.79-8.79Z"/><path d="m410.13,1001.3c.59-4.07,1.17-8.15,1.76-12.22.31-2.17.62-4.34.94-6.51.19-1.31.45-3.05-.28-4.25-1.33-2.18-5.56-1.8-7.02-.07-2.21,2.61-2.09,10.06-2.69,13.39-1.79,9.95-3.58,19.91-5.37,29.86-.67,3.72-2.3,18.94,6.41,13.41,2.65-1.68,2.23-5.59,2.62-8.29.6-4.17,1.2-8.34,1.8-12.52s1.23-8.54,1.84-12.81Z"/><path d="m439.98,984.55c-2.96-4.5-7.09-5.03-12.1-5.31-2.2-.12-4.61-.38-6.79.12-2.41.56-3.73,2.36-4.18,2.86-2.61,2.9-1.66,5.16-3.2,13.35-.41,2.18-1.99,10.11-1.58,13.75.17,1.47.68,2.75.68,2.76.37.92.88,1.78,1.53,2.61,2.9,3.67,7.07,5.42,10.85,7.84,1.37.87,4.19,2.21,3.37,3.94-.92,1.95-3.8,1.65-5.48,1.49-2.9-.29-9.43-2.6-11.38.54-1.59,2.57-1.79,8.24,1.79,9.25,2.07.58,4.8.33,6.96.51,2.43.2,4.89.48,7.33.48,4.16,0,7.42-2.09,9.64-5.55,2.09-3.27,2.7-8.28,1.08-11.87-1.82-4.02-5.31-6.14-9.06-8.12-3.64-1.92-7.59-3.56-7.24-8.23.19-2.57.43-5.13.65-7.69.18-2.12-.07-4.9.6-6.92.81-2.43,3.02-1.83,5.16-1.58,2.24.25,3.28.36,3.32,2.73.09,4.88-1.39,9.81-1.22,14.65.12,3.65,4.81,5.85,7.85,3.83,3.33-2.21,2.21-8.97,2.48-12.46.33-4.23,1.42-9.22-1.07-12.99Z"/><path d="m469.48,989.86c.16-3.01,1.39-5.59,3.66-7.48,1.82-1.51,4.1-2.3,6.51-2.43,2.15-.12,4.29-.27,6.41-.58,1.06-.15,2.1-.04,3.11.4.9.39,1.88.49,2.86.51.32,0,.67-.02.89-.26,1.06-1.13,2.51-1.31,3.9-1.62,2.04-.46,4.12-.75,6.17-1.11,1.99-.36,4.1-.42,5.98.55,2.29,1.19,4.14,2.93,5.61,5.06.35.51.31,1.15.49,1.73,1.11,3.61,1.44,7.32,1.53,11.08.04,1.71.19,3.44.51,5.13.78,4.19.89,8.42,1.08,12.65.07,1.47.65,2.86.64,4.33-.02,2.75.59,5.47.49,8.22-.01.43,0,.88.13,1.28.58,1.95.3,3.99.69,5.96.16.81-.26,1.57-.54,2.31-.11.31-.45.41-.76.5-1.76.48-3.58.45-5.38.51-1.03.03-1.96-.91-2.08-1.93-.22-1.88-.45-3.75-.77-5.62-.27-1.59-.09-3.26-.22-4.88-.19-2.4-.39-4.79-.8-7.17-.47-2.74-.46-5.53-.66-8.3-.25-3.45-.74-6.88-.99-10.33-.21-2.87-.63-5.74-.54-8.65.04-1.46-.95-2.52-1.88-3.55-.2-.22-.53-.24-.81-.18-1.91.38-3.88.34-5.75.97-1.35.46-1.89,1.1-1.72,2.54.38,3.21.52,6.44,1.03,9.65.44,2.78.32,5.65.44,8.49.01.29-.06.6.04.85.76,1.92.55,3.95.74,5.94.34,3.67.27,7.4.98,11.02.58,2.98.38,6,.79,8.97.16,1.15.29,2.45-1,3.24-.2.12-.36.3-.6.31-1.52.05-3.04.2-4.55.11-1.49-.09-2.45-1.1-2.43-2.6.05-3.34-.77-6.59-.78-9.92,0-.11,0-.24-.04-.34-.88-1.9-.47-3.95-.75-5.92-.37-2.61-.32-5.26-.91-7.84-.4-1.75-.2-3.54-.34-5.31-.2-2.72-.77-5.4-.91-8.1-.13-2.52-.69-5-.55-7.53.05-.86-.67-1.51-1.61-1.74-1.45-.34-2.91-.18-4.36-.17-.65,0-1.32-.14-1.96.11-1.25.5-2.03,1.77-1.89,3.25.34,3.53.53,7.08.84,10.6.24,2.69.6,5.39.92,8.09.28,2.36.07,4.75.5,7.11.32,1.72.99,3.38.96,5.14-.05,2.79.54,5.53.49,8.32-.02,1.06.38,2.13.59,3.2.15.79.24,1.59.19,2.39-.12,1.93-1.59,3.31-3.52,3.21-1.1-.05-2.17-.02-3.25.17-.95.17-1.81-.42-1.89-1.39-.41-4.71-1.4-9.35-1.42-14.1,0-1.99-.38-3.99-.69-5.96-.24-1.53-.27-3.08-.42-4.61-.28-2.98-.16-6.01-1.11-8.91-.43-1.32-.05-2.68-.24-4.02-.43-2.97-.24-6.01-.99-8.95-.2-.79-.1-1.6-.08-2.4Z"/><path d="m529.06,996.07c-.84-4.03-1.68-8.06-2.51-12.09l-1.34-6.44c-.27-1.3-.61-3.02-1.72-3.9-1.99-1.59-5.84.21-6.62,2.33-1.19,3.21,1.47,10.16,2.04,13.5,1.71,9.97,3.42,19.94,5.13,29.91.64,3.72,4.29,18.59,10.59,10.42,1.92-2.48.19-6.02-.36-8.68-.86-4.13-1.72-8.25-2.57-12.38-.88-4.22-1.76-8.45-2.63-12.67Z"/><path d="m550.62,969.31c-4.36-3.16-8.41-2.2-13.2-.69-2.1.66-4.45,1.27-6.3,2.51-2.05,1.37-2.65,3.53-2.9,4.16-1.41,3.63.27,5.41,1.73,13.62.39,2.18,1.71,10.16,3.38,13.43.67,1.32,1.61,2.34,1.61,2.34.67.73,1.45,1.36,2.36,1.9,4.01,2.4,8.53,2.57,12.92,3.49,1.59.33,4.7.59,4.55,2.49-.17,2.15-2.98,2.89-4.6,3.33-2.82.75-9.74.9-10.45,4.53-.58,2.97,1.24,8.34,4.94,8.02,2.14-.18,4.61-1.39,6.69-1.99,2.34-.68,4.75-1.28,7.03-2.14,3.89-1.47,6.2-4.57,7.05-8.6.8-3.8-.4-8.7-3.19-11.48-3.12-3.12-7.14-3.87-11.34-4.39-4.09-.51-8.36-.65-9.68-5.14-.72-2.47-1.41-4.95-2.11-7.42-.58-2.05-1.79-4.56-1.88-6.68-.11-2.56,2.18-2.78,4.27-3.3,2.19-.55,3.2-.82,4.08,1.38,1.81,4.54,2.17,9.67,4.03,14.14,1.41,3.37,6.57,3.77,8.7.81,2.33-3.24-1.11-9.18-2.08-12.53-1.19-4.07-1.94-9.13-5.59-11.77Z"/><path d="m577.62,958.24c-4.59-2.82-8.55-1.56-13.21.31-2.05.82-4.34,1.61-6.1,2.98-1.94,1.52-2.38,3.72-2.58,4.36-1.14,3.73.68,5.38,2.75,13.45.55,2.15,2.47,10,4.39,13.13.77,1.26,1.78,2.21,1.78,2.21.73.68,1.55,1.24,2.5,1.72,4.18,2.09,8.7,1.92,13.15,2.51,1.61.21,4.73.23,4.72,2.14-.01,2.15-2.75,3.11-4.33,3.66-2.75.97-9.64,1.63-10.08,5.31-.36,3,1.86,8.22,5.53,7.62,2.12-.35,4.49-1.73,6.52-2.49,2.28-.85,4.64-1.63,6.84-2.67,3.77-1.76,5.84-5.03,6.38-9.11.51-3.85-1.05-8.64-4.04-11.21-3.35-2.87-7.41-3.31-11.64-3.52-4.12-.2-8.38-.01-10.04-4.39-.91-2.41-1.78-4.83-2.67-7.24-.73-2-2.13-4.41-2.38-6.52-.3-2.54,1.97-2.93,4-3.62,2.14-.72,3.13-1.06,4.17,1.07,2.15,4.39,2.9,9.48,5.09,13.79,1.66,3.26,6.83,3.26,8.73.15,2.08-3.41-1.8-9.07-3.02-12.34-1.49-3.97-2.62-8.96-6.46-11.32Z"/><path d="m612.15,959.59c-1.12-2.21-.81-1.77-1.5-3.06,0,0-2.38-4.47-5.34-7.93-.13-.15-.31-.36-.63-.73-1.29-1.53-1.43-1.93-1.9-2.24-1.05-.7-2.12-.76-2.65-.86-4.29-.82-8.47,1.01-11.97,3.39-3.55,2.42-7.17,5.78-6.94,10.38.23,4.69,3.09,8.36,5.1,12.43,3.97,8,8.89,15.37,12.75,23.37,1.83,3.79,4.48,7.21,8.92,7.74,4.23.51,9.14-1.56,12.5-3.99,3.68-2.66,6.06-5.71,5.68-10.43-.35-4.37-3.29-7.89-5.33-11.62-.97-1.77-1.81-3.61-2.67-5.43-.84-1.77-1.85-3.41-2.84-5.12-1.11-1.93-2.18-3.9-3.18-5.89Zm-.84,17.61c1.04,1.81,2.01,3.64,2.92,5.52.66,1.37,2.45,3.9,2.38,5.42-.08,1.58-2.61,3.03-3.91,3.6-1.3.57-2.61.55-3.86-.19-2.89-1.69-4.55-7.2-6.13-10.1-2.01-3.7-3.97-7.26-5.77-11.05-1.58-3.3-5.43-7.33-5.65-11.11-.2-3.46,5.22-6.27,7.88-3.97,3.93,7.42,7.94,14.62,12.13,21.87Z"/><path d="m634.26,938.72c-6.07-8.44-6.77-12.3-9.75-12.45-2.73-.13-5.42,2.96-5.59,3.15-1.48,1.68-.8,2.85.34,4.53,1.39,2.07,2.63,4.14,3.87,6.3,1.26,2.2,3.17,3.95,4.54,6.08,1.14,1.78,1.95,3.71,3.23,5.4,3.05,4.05,5.99,8.17,8.98,12.27,1.13,1.56,3.52,3.68,3.78,5.64.28,2.1-1.74,3.92-3.39,4.82-3.98,2.19-6.36-3.15-8.33-5.78-2.91-3.89-5.16-8.37-7.85-12.44-2.54-3.84-5.3-7.5-7.89-11.29-1.82-2.66-4.4-9.35-8.45-8.7-3.93.63-6.39,5.03-4.24,8.25l8.89,12.59c2.19,2.45,3.64,5.59,5.8,8.15,3.45,4.08,6.24,8.63,9.3,13.01,2.66,3.8,5.95,7.04,10.94,6.71,4.25-.28,8.03-2.77,10.96-5.7,2.49-2.51,5.6-6.4,4.22-10.14-1.83-4.96-5.37-9.67-8.18-14.12-2.74-4.34-3.28-5.59-5.76-9.14-2.66-3.81-2.9-3.65-5.42-7.15Z"/><path class="cls-7" d="m336.11,672l-101.48-274.42-100.88,274.42h75.66v-87.07h13.81v87.07h6.48v-87.07h10.45v87.07h8.5v-87.07h13.81v87.07h73.64Zm-126.7-98.35l26.53-43.27,26.53,43.27h-53.06Z"/><path class="cls-7" d="m582.61,536.82c-1.63,74.85-63.63,134.19-138.46,132.56-16.98-.37-33.16-3.85-48.01-9.88,4.79.66,9.66,1.04,14.61,1.15,70.43,1.53,128.76-54.32,130.3-124.74,1.53-70.42-54.31-128.75-124.74-130.29-4.95-.11-9.84.07-14.66.51,15.11-5.38,31.43-8.15,48.42-7.78,74.84,1.63,134.19,63.63,132.56,138.46Z"/><polygon class="cls-7" points="469.6 541.83 472.81 560.35 456.16 551.63 439.54 560.41 442.69 541.88 429.21 528.78 447.8 526.05 456.09 509.18 464.44 526.02 483.04 528.69 469.6 541.83"/><rect class="cls-7" x="357.85" y="397.58" width="41.11" height="45.73"/><rect class="cls-7" x="357.85" y="449.39" width="11.82" height="185.38"/><rect class="cls-7" x="387.13" y="449.39" width="11.82" height="185.38"/><rect class="cls-7" x="373.63" y="449.39" width="9.54" height="185.38"/><polygon class="cls-7" points="398.96 642.43 357.85 642.43 378.4 672 398.96 642.43"/><path class="cls-6" d="m611.65,450.7c-.97-9.17.14-18.46.51-27.64.36-8.88,1.85-18.09,4-26.7,2.08-8.32,3.92-17.03,7.35-24.92,1.51-3.46,2.46-6.97,4.4-10.26,2.27-3.87,4.81-7.63,7.38-11.3,8.9-12.72,25.31-21.69,40.19-13.55,14.2,7.76,23.18,22.45,29.97,36.76,1.85,3.9,3.01,8.12,4.51,12.16,1.56,4.21,2.96,8.46,3.95,12.85.95,4.2,3.06,8.76,3.35,13.05.32,4.8-4.83,4.21-8.44,4.78-1.56.25-3.56,1.06-4.95.06-1.35-.97-1.79-3.57-2.26-5.05-1.34-4.15-1.89-8.44-3.02-12.63-2.21-8.23-4.34-16.78-7.77-24.59-2.98-6.8-6.87-13.9-11.67-19.59-4.88-5.8-12.3-11.06-20.23-8.7-7.42,2.21-12.16,8.01-15.89,14.62-3.98,7.06-7.05,15.63-8.73,23.55-2.09,9.82-4.18,19.5-5.53,29.46-1.38,10.22-1.53,20.53-1.89,30.84-.16,4.42.7,9.77-1.67,13.74-2.28,3.83-5.08,7.36-7.38,11.2-.77,1.28-1.52,3.77-3.42,2.84-1.52-.74-1.43-3.68-1.62-5.13-.7-5.24-.97-10.56-1.43-15.83.1,0,.19-.01.29-.02Z"/><g class="cls-3"><path class="cls-10" d="m599.48,782.91H82.31v-86.52h516.85c44.9-.34,86.25-14.23,96.05-31.96-.03-1.24-.68-4.66-3.89-10.82-6.1-11.72-17.49-25.79-28.51-39.41-12.94-16-26.33-32.54-35.86-50.38-14.45-27.05-17.29-52.87-8.46-76.72,11.44-30.91,41.51-54.22,84.66-65.65,34.06-9.02,72.75-9.74,106.14-1.96,24.18,5.63,47.04,16.01,67.95,30.85l-50.09,70.55c-11.69-8.3-24.3-14.06-37.47-17.13-18.11-4.21-40.57-4.11-60.07.28-17.49,3.94-26.21,9.79-29.2,12.58.63,2,2.24,5.92,6.33,12.35,5.95,9.35,14.39,19.78,23.32,30.82,13.7,16.93,27.87,34.44,37.99,53.87,14.87,28.56,17.65,55.92,8.24,81.32l-.41,1.1-.47,1.08c-13.84,31.93-43.16,56.45-84.8,70.91-36.37,12.63-72.63,14.73-91.01,14.86h-.15Zm99.85-265.08h0Z"/></g><path class="cls-4" d="m456.87,1084.55h-.21c-32.41-.63-66.8-5.79-99.44-14.92-57.56-16.11-109.17-43.86-153.4-82.5-103.72-90.64-127.23-207.05-132.52-252.9l-.07-.61v-408.3l9.99-.65c55.92-3.66,109.51-18.32,159.28-43.55,43.84-22.23,83.03-51.92,116.48-88.23l1.89-2.05,2.65-.87c9.85-3.23,19.98-5.83,30.11-7.72,23.36-4.37,43.26-6.29,59.15-5.67,4.05.16,8.15.16,12.19,0,15.88-.61,35.79,1.29,59.16,5.67,10.13,1.89,20.26,4.49,30.11,7.72l2.65.87,1.89,2.05c33.46,36.32,72.65,66,116.48,88.23,49.77,25.24,103.36,39.89,159.28,43.55l9.99.65v408.3l-.07.61c-5.31,45.86-28.86,162.3-132.53,252.89-44.22,38.64-95.83,66.4-153.39,82.5-32.65,9.13-67.03,14.29-99.45,14.92h-.21ZM92.62,732.38c5.15,43.79,27.63,153.31,125.28,238.65,41.8,36.52,90.62,62.77,145.09,78.01,30.86,8.63,63.32,13.52,93.89,14.13,30.57-.61,63.03-5.5,93.89-14.13,54.47-15.24,103.29-41.49,145.09-78.01,97.6-85.29,120.13-194.84,125.29-238.65v-387.16c-55.21-4.87-108.17-20.01-157.56-45.05-45.28-22.96-85.84-53.47-120.61-90.73-8.14-2.55-16.46-4.63-24.78-6.18-21.81-4.08-40.1-5.87-54.4-5.32-4.59.18-9.26.18-13.85,0-14.29-.55-32.59,1.23-54.39,5.32-8.32,1.56-16.64,3.63-24.78,6.19-34.76,37.25-75.32,67.76-120.61,90.73-49.39,25.04-102.35,40.18-157.56,45.05v387.16Z"/><path class="cls-11" d="m570.55,490.71c113.38,88.98,185.78,191.23,231.5,276.98,3.31-14.4,5.24-26.71,6.36-36.06v-374.9c-52.65-6.01-103.21-21.18-150.59-45.2-24.56-12.46-43.82-25.08-57.1-34.56-18.4-13.13-41.19-31.51-64.71-56.34-23.38-2.33-49.07-3.84-76.76-3.93-29.55-.09-56.85,1.47-81.54,3.93-35.25,37.21-76.2,67.77-121.8,90.9-10.5,5.33-21.17,10.19-31.98,14.64,95.95,21.86,222.95,67.5,346.61,164.54Z"/></svg>