<svg width="48" height="58" viewBox="0 0 48 58" fill="none" xmlns="http://www.w3.org/2000/svg">
<path d="M43.2289 17.225V37.6528C43.0569 39.1379 42.16 45.4386 36.6051 50.2928C31.418 54.8255 25.5616 55.1306 23.9682 55.1619C22.3748 55.1311 16.5189 54.8255 11.3313 50.2928C5.77694 45.4386 4.87955 39.1379 4.7085 37.6528V17.225C6.57622 17.1028 9.69576 16.6574 13.1024 14.9299C16.0376 13.4413 18.044 11.5797 19.2414 10.2801C19.6816 10.1358 20.1752 10.0033 20.7177 9.90157C21.8216 9.69455 22.8155 9.58771 23.6338 9.61956C23.8567 9.62829 24.0797 9.62829 24.3026 9.61956C25.1209 9.58771 26.1148 9.69507 27.2192 9.90157C27.7622 10.0028 28.2553 10.1358 28.6956 10.2801C29.8929 11.5797 31.8988 13.4413 34.8345 14.9299C38.2417 16.6574 41.3607 17.1028 43.2284 17.225H43.2289Z" fill="url(#paint0_linear_904_163)"/>
<path d="M31.7886 44.3748H41.2124" stroke="white" stroke-width="0.156671" stroke-miterlimit="10" stroke-linecap="round"/>
<path d="M6.7251 44.3748H16.149" stroke="white" stroke-width="0.156671" stroke-miterlimit="10" stroke-linecap="round"/>
<path d="M34.4076 48.9572C34.217 48.7266 34.0449 48.4831 33.858 48.2489C33.7465 48.1092 33.6366 47.9689 33.5256 47.8287C33.464 47.7506 33.3438 47.6561 33.3422 47.5487C33.3402 47.429 33.4722 47.3736 33.4676 47.2503C33.4645 47.1696 33.3695 47.0248 33.2873 47.0027C33.1861 46.9755 33.0659 47.1059 33.0001 47.1768C32.9565 47.2241 32.9262 47.2678 32.9046 47.315C32.8902 47.3469 32.8589 47.4147 32.8599 47.504C32.8604 47.5724 32.8794 47.6242 32.8928 47.6581C32.9734 47.86 33.1167 48.0465 33.1701 48.1163C33.334 48.3311 33.203 48.1708 33.4023 48.4281C33.5914 48.6727 33.7937 48.9053 33.9782 49.154C34.0778 49.288 34.18 49.4206 34.2889 49.5474C34.4004 49.6769 34.4605 49.7894 34.6346 49.6851C34.9608 49.4909 34.5591 49.1406 34.4071 48.9567L34.4076 48.9572Z" fill="black"/>
<path d="M16.3597 48.2921C16.3335 48.232 16.2744 48.1868 16.2215 48.1513C16.0859 48.0609 15.9595 47.9577 15.8254 47.8632C15.6893 47.7671 15.5167 47.5986 15.3503 47.5642C15.3092 47.556 15.285 47.5575 15.2666 47.5642C15.2506 47.5704 15.1977 47.5837 15.169 47.631C15.1613 47.6433 15.1582 47.6541 15.152 47.6721C15.1417 47.7039 15.1443 47.7152 15.1376 47.7543C15.1304 47.7974 15.1248 47.7989 15.1114 47.8652C15.1058 47.894 15.1027 47.9084 15.1032 47.9114C15.1099 47.9705 15.2003 47.9726 15.285 48.0676C15.3107 48.0964 15.3241 48.1205 15.3318 48.1457C15.34 48.1719 15.3421 48.2001 15.338 48.2299C15.3179 48.3784 15.1464 48.5484 15.0657 48.6727C14.8376 49.0241 14.6008 49.3698 14.364 49.7149C14.2659 49.8578 14.1699 49.9923 14.0979 50.1505C14.0697 50.2132 14.0558 50.2368 14.0923 50.3036C14.1303 50.3725 14.2156 50.4516 14.2967 50.4634C14.474 50.4891 14.5813 50.2286 14.6579 50.1079C14.7596 49.9461 14.8664 49.7905 14.9763 49.6343C15.2131 49.2978 15.4284 48.948 15.6662 48.6126C15.7967 48.4282 15.883 48.479 16.055 48.5746C16.2112 48.6609 16.2204 48.6008 16.3032 48.4842C16.3566 48.4087 16.4028 48.3907 16.3602 48.2926L16.3597 48.2921Z" fill="black"/>
<path d="M14.9791 47.915C15.0089 47.8944 15.0222 47.8636 15.034 47.8302C15.0464 47.7943 15.0567 47.7573 15.0633 47.7198C15.0731 47.6669 15.0721 47.6119 15.0721 47.558C15.0721 47.5534 15.0731 47.5498 15.0746 47.5462C15.0608 47.4737 15.0695 47.3987 15.031 47.3243C15.0017 47.2677 14.9611 47.2174 14.9169 47.1717C14.8085 47.0597 14.6606 46.9375 14.526 46.8594C14.2312 46.6878 13.9759 46.8851 13.7838 47.1023C13.6548 47.2482 13.5382 47.4018 13.4149 47.5523C13.3096 47.6802 13.2033 47.786 13.136 47.9401C13.0107 48.2263 13.3127 48.6403 13.4191 48.9089L13.4047 48.9141C13.4144 48.9983 13.3466 49.0671 13.2614 49.0651C13.1823 49.063 13.1078 48.9747 13.0513 48.9285C12.9326 48.8314 12.7225 48.5581 12.5479 48.6197C12.3938 48.6737 12.3172 48.8581 12.4097 48.9855C12.5191 49.1365 12.7148 49.2521 12.854 49.3774C12.9994 49.5079 13.1494 49.587 13.3502 49.569C13.5521 49.551 13.6697 49.4457 13.7807 49.2808C13.9168 49.0779 13.8983 48.9254 13.8218 48.7014C13.7637 48.5319 13.6178 48.3002 13.6235 48.1204C13.6286 47.9494 13.8002 47.8148 13.9086 47.7018C14.0082 47.5975 14.1053 47.4028 14.243 47.351C14.3848 47.2975 14.5784 47.4254 14.5604 47.5862C14.5445 47.7326 14.3509 47.8975 14.261 48.0074C14.1896 48.0948 14.0509 48.2134 14.0088 48.3162C13.9779 48.3917 14.0041 48.4209 14.056 48.4795C14.1408 48.5761 14.2538 48.6773 14.3853 48.5833C14.4351 48.5473 14.4788 48.4646 14.5219 48.4168C14.5759 48.3573 14.6288 48.2961 14.6817 48.2355C14.7423 48.1662 14.8722 47.9514 14.976 47.9175C14.977 47.917 14.9781 47.916 14.9796 47.9155L14.9791 47.915Z" fill="black"/>
<path d="M18.1288 49.284C18.0019 49.5516 17.8396 49.8043 17.7168 50.073C17.6259 50.2723 17.5581 50.4808 17.462 50.6791C17.3577 50.8938 17.2273 51.1419 17.1641 51.3721C17.1292 51.4984 17.199 51.499 17.2904 51.5688C17.3767 51.6346 17.3845 51.7255 17.3382 51.8221C17.2021 52.1071 16.99 51.9833 16.7665 51.8868C16.6679 51.8441 16.577 51.8149 16.521 51.7173C16.4511 51.596 16.5338 51.4974 16.5862 51.3808C16.7983 50.9087 17.0341 50.4588 17.2411 49.9893C17.3598 49.7201 17.4769 49.4468 17.6177 49.1879C17.6957 49.0446 17.7281 48.9871 17.8961 49.0369C18.043 49.0806 18.0784 49.1515 18.1288 49.2845V49.284Z" fill="black"/>
<path d="M35.6413 48.7815C35.6618 48.8714 35.5144 48.9963 35.4394 49.0225C35.3166 49.0651 35.197 48.9094 35.1291 48.8319C34.9232 48.5976 34.7269 48.3537 34.5174 48.1225C34.4218 48.0172 34.3139 47.9227 34.2374 47.8035C34.1609 47.6843 34.0725 47.5806 33.9795 47.4742C33.8922 47.3746 33.7946 47.2867 33.7058 47.1891C33.6313 47.107 33.452 46.9457 33.4582 46.8311C33.4628 46.7387 33.6123 46.5825 33.7068 46.5763C33.7977 46.5707 33.8979 46.713 33.9508 46.77C34.1747 47.0119 34.3797 47.2719 34.5995 47.5174C34.7968 47.7378 34.9745 47.9812 35.1928 48.1805C35.3038 48.2823 35.3957 48.3927 35.4918 48.5083C35.5709 48.6033 35.6413 48.6536 35.6413 48.7805V48.7815Z" fill="black"/>
<path d="M23.5795 52.8587C23.6797 52.8802 23.766 52.8623 23.7999 52.984C23.8291 53.0888 23.7983 53.2259 23.7942 53.3333C23.7886 53.4746 23.8461 53.7525 23.6791 53.8054C23.6072 53.8285 23.4429 53.8321 23.3781 53.7833C23.2934 53.7191 23.3345 53.5639 23.336 53.472C23.3381 53.3338 23.3334 53.1931 23.3437 53.0554C23.3555 52.8946 23.4238 52.8777 23.5795 52.8582V52.8587Z" fill="black"/>
<path d="M15.7173 50.8565C15.6572 50.9854 15.536 51.272 15.3664 51.1847C15.2992 51.1498 15.1558 51.0722 15.1194 51.0059C15.0757 50.9274 15.1214 50.8272 15.1594 50.7532C15.2298 50.6181 15.351 50.4604 15.5062 50.5442C15.649 50.6212 15.7296 50.6782 15.7173 50.856V50.8565Z" fill="black"/>
<path d="M19.464 50.8224C19.5092 50.7032 19.503 50.7305 19.5282 50.6596C19.5282 50.6596 19.615 50.414 19.6433 50.1819C19.6443 50.1716 19.6458 50.1577 19.6494 50.1325C19.6628 50.0303 19.673 50.0118 19.6684 49.9831C19.6581 49.9194 19.6237 49.8762 19.6088 49.8526C19.4912 49.6615 19.277 49.5665 19.0649 49.5166C18.8501 49.4658 18.5974 49.4458 18.431 49.6137C18.261 49.7853 18.2214 50.0211 18.1372 50.2378C17.9718 50.6657 17.8634 51.1075 17.6944 51.5313C17.6142 51.7321 17.5767 51.951 17.7108 52.1379C17.8382 52.3157 18.0868 52.4297 18.2959 52.4728C18.5245 52.5201 18.7227 52.5042 18.8881 52.3264C19.0417 52.1616 19.0731 51.9278 19.1434 51.7213C19.1768 51.6232 19.2174 51.5277 19.2565 51.4316C19.2945 51.3387 19.3212 51.2431 19.352 51.1465C19.3864 51.0371 19.4239 50.9287 19.4645 50.8219L19.464 50.8224ZM18.7679 51.4013C18.7356 51.5035 18.6996 51.6037 18.6601 51.7034C18.6308 51.7763 18.5974 51.9319 18.5373 51.9813C18.4746 52.0331 18.3324 51.9874 18.2656 51.9581C18.1993 51.9289 18.1546 51.8785 18.1387 51.8056C18.1027 51.6376 18.2532 51.3833 18.3087 51.2231C18.3791 51.0186 18.4464 50.8209 18.527 50.621C18.5974 50.4469 18.6164 50.1608 18.752 50.0216C18.8763 49.8942 19.1707 50.0021 19.1758 50.1829C19.031 50.5892 18.8974 50.9909 18.7679 51.4013Z" fill="black"/>
<path d="M21.059 50.9843C21.1782 50.464 21.3035 50.3058 21.2085 50.1861C21.1212 50.0767 20.9106 50.0777 20.8972 50.0777C20.7822 50.0777 20.7601 50.1434 20.7339 50.2441C20.7015 50.3679 20.6635 50.4861 20.6219 50.6073C20.5798 50.7306 20.5772 50.8636 20.5418 50.989C20.512 51.0932 20.4647 51.1898 20.4426 51.2966C20.3897 51.5514 20.3312 51.8052 20.2741 52.0595C20.2526 52.156 20.2515 52.3199 20.1848 52.3969C20.1134 52.4791 19.9747 52.4627 19.8837 52.4298C19.6639 52.3507 19.7892 52.0774 19.8242 51.9125C19.875 51.6685 19.9721 51.4297 20.0373 51.1877C20.099 50.9597 20.1467 50.729 20.2048 50.5005C20.2454 50.3402 20.4164 50.0135 20.2536 49.8789C20.0959 49.7489 19.8427 49.8029 19.7918 49.995L19.6079 50.765C19.5879 50.9325 19.516 51.0953 19.4903 51.2653C19.4502 51.5365 19.369 51.799 19.3043 52.0651C19.2478 52.2968 19.235 52.5336 19.4168 52.7149C19.5719 52.869 19.7959 52.9306 20.0086 52.944C20.1899 52.9553 20.4457 52.943 20.5433 52.7627C20.6727 52.5238 20.7339 52.2274 20.8104 51.968C20.8849 51.7153 20.9147 51.6516 20.9676 51.4359C21.0241 51.2042 21.0097 51.2001 21.0595 50.9843H21.059Z" fill="black"/>
<path d="M21.5674 51.4342C21.5977 51.2251 21.6275 51.0155 21.6578 50.8065C21.6737 50.695 21.6897 50.5835 21.7061 50.4721C21.7159 50.4048 21.7292 50.3154 21.6917 50.2537C21.6234 50.1418 21.4061 50.1613 21.3311 50.2502C21.2176 50.3842 21.2238 50.7669 21.1929 50.938C21.101 51.4491 21.009 51.9607 20.9171 52.4718C20.8827 52.6629 20.7989 53.4447 21.2464 53.1606C21.3825 53.0743 21.3609 52.8735 21.3809 52.7348C21.4118 52.5206 21.4426 52.3064 21.4734 52.0917C21.5042 51.877 21.5366 51.653 21.5679 51.4337L21.5674 51.4342Z" fill="black"/>
<path d="M23.1005 50.5738C22.9484 50.3426 22.7363 50.3154 22.479 50.301C22.3659 50.2948 22.2421 50.2815 22.1302 50.3072C22.0064 50.3359 21.9386 50.4284 21.9154 50.4541C21.7814 50.603 21.8302 50.7191 21.7511 51.1398C21.73 51.2518 21.6489 51.6592 21.6699 51.8461C21.6786 51.9216 21.7048 51.9874 21.7048 51.9879C21.7238 52.0352 21.75 52.0793 21.7834 52.122C21.9324 52.3105 22.1466 52.4004 22.3408 52.5247C22.4111 52.5694 22.556 52.6382 22.5139 52.7271C22.4666 52.8272 22.3187 52.8118 22.2324 52.8036C22.0834 52.7887 21.748 52.6701 21.6478 52.8314C21.5662 52.9634 21.5559 53.2546 21.7398 53.3065C21.8461 53.3363 21.9863 53.3235 22.0973 53.3327C22.2221 53.343 22.3485 53.3574 22.4738 53.3574C22.6875 53.3574 22.855 53.25 22.969 53.0723C23.0764 52.9043 23.1077 52.6469 23.0245 52.4625C22.931 52.256 22.7517 52.1471 22.5591 52.0454C22.3721 51.9468 22.1692 51.8626 22.1872 51.6227C22.1969 51.4907 22.2093 51.3592 22.2206 51.2277C22.2298 51.1188 22.217 50.976 22.2514 50.8722C22.293 50.7474 22.4065 50.7782 22.5164 50.791C22.6315 50.8039 22.6849 50.8095 22.687 50.9313C22.6916 51.182 22.6156 51.4352 22.6243 51.6838C22.6305 51.8713 22.8714 51.9843 23.0276 51.8805C23.1986 51.767 23.1411 51.4198 23.1549 51.2405C23.1719 51.0232 23.2279 50.7669 23.1 50.5732L23.1005 50.5738Z" fill="black"/>
<path d="M24.616 50.8466C24.6242 50.6919 24.6874 50.5594 24.804 50.4623C24.8975 50.3848 25.0146 50.3442 25.1384 50.3375C25.2489 50.3313 25.3588 50.3236 25.4677 50.3077C25.5221 50.3 25.5756 50.3057 25.6274 50.3283C25.6737 50.3483 25.724 50.3534 25.7743 50.3545C25.7908 50.3545 25.8088 50.3534 25.8201 50.3411C25.8745 50.2831 25.949 50.2738 26.0204 50.2579C26.1252 50.2343 26.232 50.2194 26.3373 50.2009C26.4396 50.1824 26.5479 50.1793 26.6445 50.2291C26.7621 50.2903 26.8572 50.3796 26.9327 50.489C26.9507 50.5152 26.9486 50.5481 26.9579 50.5779C27.0149 50.7633 27.0318 50.9539 27.0364 51.1471C27.0385 51.2349 27.0462 51.3238 27.0626 51.4106C27.1027 51.6258 27.1084 51.8431 27.1181 52.0604C27.1217 52.1359 27.1515 52.2073 27.151 52.2828C27.15 52.4241 27.1813 52.5638 27.1762 52.705C27.1757 52.7271 27.1762 52.7502 27.1828 52.7708C27.2126 52.8709 27.1983 52.9757 27.2183 53.0769C27.2265 53.1185 27.2049 53.1576 27.1905 53.1956C27.1849 53.2115 27.1674 53.2167 27.1515 53.2213C27.0611 53.2459 26.9676 53.2444 26.8752 53.2475C26.8222 53.249 26.7745 53.2007 26.7683 53.1483C26.757 53.0518 26.7452 52.9557 26.7288 52.8597C26.7149 52.778 26.7241 52.6922 26.7175 52.609C26.7077 52.4857 26.6974 52.3629 26.6764 52.2407C26.6522 52.0999 26.6527 51.9566 26.6425 51.8143C26.6296 51.6371 26.6044 51.4609 26.5916 51.2837C26.5808 51.1363 26.5592 50.9888 26.5639 50.8394C26.5659 50.7644 26.5151 50.7099 26.4673 50.657C26.457 50.6457 26.4401 50.6447 26.4257 50.6478C26.3276 50.6673 26.2264 50.6652 26.1303 50.6976C26.061 50.7212 26.0332 50.7541 26.042 50.8281C26.0615 50.993 26.0687 51.1589 26.0949 51.3238C26.1175 51.4666 26.1113 51.614 26.1175 51.7599C26.118 51.7748 26.1144 51.7907 26.1195 51.8035C26.1586 51.9022 26.1478 52.0064 26.1575 52.1087C26.175 52.2972 26.1714 52.4888 26.2079 52.6747C26.2377 52.8278 26.2274 52.9829 26.2485 53.1355C26.2567 53.1946 26.2634 53.2613 26.1971 53.3019C26.1868 53.3081 26.1786 53.3173 26.1663 53.3178C26.0882 53.3204 26.0101 53.3281 25.9326 53.3235C25.856 53.3189 25.8067 53.267 25.8077 53.1899C25.8103 53.0184 25.7682 52.8514 25.7677 52.6804C25.7677 52.6747 25.7677 52.668 25.7656 52.6629C25.7204 52.5653 25.7415 52.46 25.7271 52.3588C25.7081 52.2247 25.7107 52.0886 25.6803 51.9561C25.6598 51.8662 25.6701 51.7743 25.6629 51.6833C25.6526 51.5436 25.6233 51.406 25.6161 51.2673C25.6095 51.1378 25.5807 51.0104 25.5879 50.8805C25.5905 50.8363 25.5535 50.8029 25.5052 50.7911C25.4307 50.7736 25.3557 50.7818 25.2812 50.7824C25.2478 50.7824 25.2134 50.7752 25.1805 50.788C25.1163 50.8137 25.0763 50.8789 25.0835 50.9549C25.1009 51.1363 25.1107 51.3186 25.1266 51.4994C25.1389 51.6376 25.1574 51.7763 25.1739 51.915C25.1882 52.0362 25.1775 52.159 25.1995 52.2802C25.216 52.3686 25.2504 52.4538 25.2489 52.5443C25.2463 52.6876 25.2766 52.8283 25.274 52.9716C25.273 53.0261 25.2935 53.081 25.3043 53.136C25.312 53.1766 25.3167 53.2177 25.3141 53.2588C25.3079 53.3579 25.2324 53.4288 25.1333 53.4237C25.0768 53.4211 25.0218 53.4226 24.9663 53.4324C24.9175 53.4411 24.8734 53.4108 24.8693 53.361C24.8482 53.1191 24.7973 52.8807 24.7963 52.6367C24.7963 52.5345 24.7768 52.4318 24.7609 52.3306C24.7485 52.252 24.747 52.1724 24.7393 52.0938C24.7249 51.9407 24.7311 51.785 24.6823 51.6361C24.6602 51.5683 24.6797 51.4984 24.6699 51.4296C24.6479 51.277 24.6576 51.1209 24.6191 50.9698C24.6088 50.9293 24.614 50.8877 24.615 50.8466H24.616Z" fill="black"/>
<path d="M27.6764 51.1655C27.6333 50.9585 27.5901 50.7515 27.5475 50.5445L27.4786 50.2137C27.4648 50.1469 27.4473 50.0586 27.3903 50.0134C27.2881 49.9317 27.0903 50.0241 27.0502 50.133C26.9891 50.2979 27.1257 50.6549 27.155 50.8265C27.2429 51.3386 27.3307 51.8508 27.4185 52.3629C27.4514 52.554 27.6389 53.3178 27.9625 52.8982C28.0611 52.7708 27.9723 52.5889 27.944 52.4523C27.8999 52.2401 27.8557 52.0285 27.812 51.8164C27.7668 51.5996 27.7216 51.3823 27.6769 51.1655H27.6764Z" fill="black"/>
<path d="M28.7839 49.7911C28.5599 49.6288 28.3519 49.6781 28.1058 49.7557C27.998 49.7896 27.8773 49.8209 27.7822 49.8846C27.6769 49.955 27.6461 50.0659 27.6333 50.0983C27.5608 50.2847 27.6471 50.3762 27.7221 50.7979C27.7422 50.9099 27.81 51.3198 27.8958 51.4878C27.9302 51.5556 27.9785 51.608 27.9785 51.608C28.0129 51.6455 28.0529 51.6778 28.0997 51.7056C28.3057 51.8289 28.5378 51.8376 28.7633 51.8848C28.845 51.9018 29.0048 51.9151 28.9971 52.0127C28.9883 52.1232 28.844 52.1612 28.7608 52.1838C28.6159 52.2223 28.2605 52.23 28.224 52.4165C28.1942 52.5691 28.2877 52.8449 28.4777 52.8285C28.5877 52.8192 28.7145 52.7571 28.8214 52.7262C28.9416 52.6913 29.0654 52.6605 29.1825 52.6163C29.3823 52.5408 29.501 52.3816 29.5446 52.1746C29.5857 51.9794 29.5241 51.7277 29.3808 51.5849C29.2205 51.4246 29.014 51.3861 28.7983 51.3594C28.5882 51.3332 28.3688 51.326 28.301 51.0953C28.2641 50.9684 28.2286 50.8411 28.1927 50.7142C28.1629 50.6089 28.1007 50.4799 28.0961 50.371C28.0904 50.2395 28.2081 50.2282 28.3154 50.2015C28.4279 50.1733 28.4798 50.1594 28.525 50.2724C28.618 50.5056 28.6365 50.7691 28.732 50.9988C28.8044 51.1719 29.0695 51.1924 29.1789 51.0404C29.2986 50.8739 29.1219 50.5688 29.0721 50.3967C29.0109 50.1877 28.9724 49.9277 28.7849 49.7921L28.7839 49.7911Z" fill="black"/>
<path d="M30.1708 49.2223C29.935 49.0774 29.7316 49.1421 29.4923 49.2382C29.387 49.2803 29.2693 49.3209 29.1789 49.3913C29.0793 49.4693 29.0567 49.5824 29.0464 49.6152C28.9878 49.8068 29.0813 49.8916 29.1877 50.3061C29.2159 50.4166 29.3145 50.8198 29.4132 50.9806C29.4527 51.0453 29.5046 51.0941 29.5046 51.0941C29.5421 51.129 29.5842 51.1578 29.633 51.1825C29.8477 51.2898 30.0799 51.2811 30.3085 51.3114C30.3912 51.3222 30.5515 51.3232 30.5509 51.4213C30.5504 51.5317 30.4097 51.5811 30.3285 51.6093C30.1873 51.6591 29.8333 51.693 29.8107 51.8821C29.7922 52.0362 29.9063 52.3043 30.0948 52.2735C30.2037 52.2555 30.3254 52.1846 30.4297 52.1456C30.5468 52.1019 30.6681 52.0619 30.7811 52.0084C30.9747 51.918 31.0811 51.7501 31.1088 51.5405C31.135 51.3427 31.0549 51.0967 30.9013 50.9646C30.7292 50.8172 30.5206 50.7946 30.3034 50.7838C30.0917 50.7736 29.8729 50.7833 29.7876 50.5583C29.7409 50.4345 29.6962 50.3102 29.6505 50.1864C29.613 50.0837 29.5411 49.9599 29.5282 49.8515C29.5128 49.721 29.6294 49.701 29.7337 49.6656C29.8436 49.6286 29.8945 49.6111 29.9479 49.7205C30.0583 49.946 30.0969 50.2075 30.2093 50.4289C30.2946 50.5963 30.5602 50.5963 30.6578 50.4366C30.7646 50.2614 30.5653 49.9707 30.5027 49.8027C30.4261 49.5988 30.3681 49.3425 30.1708 49.2212V49.2223Z" fill="black"/>
<path d="M31.9443 49.2917C31.8868 49.1782 31.9027 49.2008 31.8673 49.1346C31.8673 49.1346 31.745 48.9049 31.593 48.7272C31.5863 48.7195 31.577 48.7087 31.5606 48.6897C31.4943 48.6111 31.4871 48.5906 31.463 48.5747C31.4091 48.5387 31.3541 48.5356 31.3269 48.5305C31.1065 48.4884 30.8918 48.5824 30.712 48.7046C30.5297 48.8289 30.3437 49.0015 30.3555 49.2378C30.3673 49.4787 30.5142 49.6672 30.6175 49.8763C30.8214 50.2872 31.0741 50.6658 31.2724 51.0768C31.3664 51.2714 31.5026 51.4471 31.7306 51.4743C31.9479 51.5005 32.2001 51.3942 32.3727 51.2694C32.5617 51.1328 32.684 50.9761 32.6645 50.7336C32.6465 50.5092 32.4955 50.3283 32.3907 50.1367C32.3409 50.0458 32.2977 49.9513 32.2535 49.8578C32.2104 49.7669 32.1585 49.6827 32.1077 49.5948C32.0506 49.4957 31.9957 49.3945 31.9443 49.2923V49.2917ZM31.9012 50.1963C31.9546 50.2893 32.0044 50.3833 32.0512 50.4799C32.0851 50.5502 32.177 50.6802 32.1734 50.7583C32.1693 50.8394 32.0393 50.9139 31.9726 50.9432C31.9058 50.9725 31.8385 50.9715 31.7743 50.9334C31.6258 50.8466 31.5406 50.5636 31.4594 50.4146C31.3562 50.2246 31.2555 50.0417 31.163 49.847C31.0819 49.6775 30.8841 49.4705 30.8728 49.2763C30.8625 49.0986 31.1409 48.9543 31.2776 49.0724C31.4794 49.4536 31.6854 49.8234 31.9006 50.1958L31.9012 50.1963Z" fill="black"/>
<path d="M33.0805 48.2196C32.7687 47.786 32.7327 47.5877 32.5796 47.58C32.4394 47.5734 32.3012 47.7321 32.2925 47.7418C32.2165 47.8281 32.2514 47.8882 32.31 47.9745C32.3814 48.0809 32.4451 48.1872 32.5088 48.2982C32.5735 48.4112 32.6716 48.5011 32.742 48.6105C32.8005 48.7019 32.8421 48.801 32.9079 48.8879C33.0646 49.0959 33.2156 49.3075 33.3692 49.5181C33.4272 49.5983 33.55 49.7072 33.5633 49.8078C33.5777 49.9157 33.474 50.0092 33.3892 50.0554C33.1848 50.1679 33.0625 49.8936 32.9613 49.7585C32.8118 49.5587 32.6962 49.3286 32.5581 49.1195C32.4276 48.9223 32.2858 48.7343 32.1528 48.5396C32.0593 48.4029 31.9268 48.0593 31.7187 48.0927C31.5169 48.125 31.3905 48.3511 31.5009 48.5165L31.9576 49.1632C32.0701 49.289 32.1446 49.4503 32.2555 49.5818C32.4327 49.7914 32.576 50.0251 32.7332 50.2501C32.8699 50.4453 33.0389 50.6117 33.2952 50.5948C33.5135 50.5804 33.7077 50.4525 33.8582 50.302C33.9861 50.1731 34.1458 49.9732 34.0749 49.7811C33.9809 49.5263 33.7991 49.2844 33.6548 49.0558C33.514 48.8329 33.4863 48.7687 33.3589 48.5863C33.2222 48.3906 33.2099 48.3988 33.0805 48.219V48.2196Z" fill="black"/>
<path d="M17.7653 34.5189L12.5526 20.4226L7.37061 34.5189H11.2571V30.0463H11.9665V34.5189H12.2993V30.0463H12.8361V34.5189H13.2727V30.0463H13.9821V34.5189H17.7648H17.7653ZM11.2571 29.4669L12.6198 27.2442L13.9826 29.4669H11.2571Z" fill="white"/>
<path d="M30.4271 27.575C30.3434 31.4198 27.1586 34.468 23.3148 34.3843C22.4426 34.3652 21.6114 34.1865 20.8486 33.8767C21.0947 33.9106 21.3448 33.9302 21.5991 33.9358C25.2169 34.0144 28.2132 31.1455 28.2923 27.5282C28.3709 23.9109 25.5025 20.9147 21.8847 20.8356C21.6304 20.8299 21.3793 20.8392 21.1317 20.8618C21.9078 20.5854 22.7461 20.4431 23.6189 20.4621C27.4632 20.5459 30.5119 23.7306 30.4281 27.5745L30.4271 27.575Z" fill="white"/>
<path d="M24.6221 27.8324L24.787 28.7837L23.9317 28.3358L23.078 28.7868L23.2398 27.835L22.5474 27.1621L23.5023 27.0218L23.9281 26.1553L24.357 27.0203L25.3125 27.1575L24.6221 27.8324Z" fill="white"/>
<path d="M20.9936 20.4226H18.8818V22.7716H20.9936V20.4226Z" fill="white"/>
<path d="M19.489 23.084H18.8818V32.6065H19.489V23.084Z" fill="white"/>
<path d="M20.9929 23.084H20.3857V32.6065H20.9929V23.084Z" fill="white"/>
<path d="M20.1824 23.084H19.6924V32.6065H20.1824V23.084Z" fill="white"/>
<path d="M20.9936 33H18.8818L19.9374 34.5189L20.9936 33Z" fill="white"/>
<path d="M31.9189 23.1514C31.869 22.6803 31.926 22.2031 31.945 21.7316C31.9635 21.2754 32.0401 20.8023 32.1505 20.3601C32.2574 19.9327 32.3519 19.4853 32.5281 19.08C32.6056 18.9023 32.6544 18.722 32.7541 18.553C32.8707 18.3542 33.0012 18.161 33.1332 17.9725C33.5903 17.3191 34.4333 16.8583 35.1976 17.2765C35.9271 17.6751 36.3883 18.4297 36.7371 19.1647C36.8321 19.3651 36.8917 19.5819 36.9688 19.7894C37.0489 20.0056 37.1208 20.2239 37.1717 20.4494C37.2205 20.6652 37.3289 20.8994 37.3438 21.1198C37.3602 21.3664 37.0957 21.336 36.9102 21.3653C36.8301 21.3782 36.7274 21.4198 36.656 21.3684C36.5866 21.3186 36.564 21.185 36.5399 21.109C36.471 20.8958 36.4428 20.6755 36.3847 20.4602C36.2712 20.0375 36.1618 19.5983 35.9856 19.1971C35.8325 18.8478 35.6327 18.4831 35.3862 18.1908C35.1355 17.8929 34.7543 17.6227 34.347 17.7439C33.9658 17.8574 33.7224 18.1554 33.5308 18.4949C33.3263 18.8576 33.1686 19.2978 33.0823 19.7046C32.975 20.209 32.8676 20.7063 32.7983 21.2179C32.7274 21.7429 32.7197 22.2725 32.7012 22.8021C32.693 23.0291 32.7371 23.3039 32.6154 23.5079C32.4983 23.7046 32.3544 23.8859 32.2363 24.0832C32.1967 24.1489 32.1582 24.2768 32.0606 24.2291C31.9825 24.1911 31.9872 24.04 31.9774 23.9655C31.9415 23.6964 31.9276 23.4231 31.904 23.1524C31.9091 23.1524 31.9137 23.1519 31.9189 23.1514Z" fill="#FAFCF9"/>
<mask id="mask0_904_163" style="mask-type:luminance" maskUnits="userSpaceOnUse" x="5" y="9" width="39" height="46">
<path d="M43.8491 16.6518V37.0796C43.677 38.5646 42.7801 44.8653 37.2252 49.7196C32.0381 54.2522 26.1817 54.5574 24.5883 54.5887C22.9949 54.5579 17.139 54.2522 11.9514 49.7196C6.39706 44.8653 5.49967 38.5646 5.32861 37.0796V16.6518C7.19633 16.5295 10.3159 16.0842 13.7226 14.3567C16.6577 12.8681 18.6641 11.0065 19.8615 9.7069C20.3017 9.56256 20.7953 9.43003 21.3378 9.32832C22.4417 9.12131 23.4356 9.01447 24.2539 9.04632C24.4769 9.05505 24.6998 9.05505 24.9227 9.04632C25.741 9.01447 26.735 9.12183 27.8394 9.32832C28.3823 9.42952 28.8754 9.56256 29.3157 9.7069C30.513 11.0065 32.5189 12.8681 35.4546 14.3567C38.8618 16.0842 41.9808 16.5295 43.8485 16.6518H43.8491Z" fill="white"/>
</mask>
<g mask="url(#mask0_904_163)">
<path d="M31.2937 40.216H4.72803V35.7717H31.2773C33.5837 35.7542 35.7077 35.0407 36.2111 34.13C36.2096 34.0663 36.1762 33.8906 36.0113 33.5742C35.698 32.9722 35.1129 32.2494 34.5468 31.5498C33.8821 30.7279 33.1943 29.8783 32.7048 28.9619C31.9625 27.5724 31.8166 26.2461 32.2702 25.021C32.8579 23.4332 34.4025 22.2358 36.619 21.6487C38.3686 21.1854 40.356 21.1484 42.0711 21.548C43.3132 21.8372 44.4874 22.3704 45.5615 23.1327L42.9885 26.7567C42.3881 26.3303 41.7403 26.0345 41.0638 25.8768C40.1335 25.6605 38.9798 25.6657 37.9782 25.8912C37.0798 26.0935 36.6318 26.394 36.4782 26.5374C36.5106 26.6401 36.5933 26.8415 36.8034 27.1717C37.109 27.652 37.5426 28.1878 38.0013 28.7549C38.705 29.6245 39.4329 30.524 39.9527 31.5221C40.7166 32.9891 40.8594 34.3945 40.376 35.6993L40.3549 35.7558L40.3308 35.8112C39.6199 37.4514 38.1138 38.7109 35.9748 39.4537C34.1066 40.1025 32.244 40.2103 31.2999 40.217H31.2922L31.2937 40.216Z" fill="url(#paint1_linear_904_163)"/>
</g>
<path d="M23.968 55.7106H23.9572C22.2924 55.6783 20.5259 55.4132 18.8493 54.9442C15.8926 54.1167 13.2415 52.6913 10.9695 50.7064C5.64167 46.0505 4.43402 40.0708 4.16229 37.7156L4.15869 37.6843V16.7109L4.67185 16.6775C7.54432 16.4895 10.2971 15.7365 12.8537 14.4405C15.1056 13.2986 17.1187 11.7735 18.8369 9.90834L18.934 9.80304L19.0701 9.75835C19.5761 9.59243 20.0965 9.45887 20.6168 9.36179C21.8168 9.13731 22.839 9.03869 23.6552 9.07054C23.8632 9.07875 24.0738 9.07875 24.2814 9.07054C25.0971 9.0392 26.1198 9.1368 27.3203 9.36179C27.8406 9.45887 28.361 9.59243 28.8669 9.75835L29.0031 9.80304L29.1002 9.90834C30.8189 11.774 32.832 13.2986 35.0834 14.4405C37.64 15.737 40.3928 16.4895 43.2652 16.6775L43.7784 16.7109V37.6843L43.7748 37.7156C43.502 40.0713 42.2923 46.0525 36.9671 50.7059C34.6956 52.6907 32.0445 54.1167 29.0878 54.9437C27.4107 55.4127 25.6447 55.6778 23.9793 55.7101H23.9685L23.968 55.7106ZM5.25744 37.6206C5.52198 39.8699 6.67672 45.4957 11.6928 49.8794C13.8399 51.7553 16.3477 53.1037 19.1457 53.8866C20.7309 54.3299 22.3982 54.5811 23.9685 54.6124C25.5388 54.5811 27.2062 54.3299 28.7914 53.8866C31.5894 53.1037 34.0972 51.7553 36.2443 49.8794C41.2578 45.4983 42.4151 39.871 42.6802 37.6206V17.7331C39.8442 17.483 37.1237 16.7053 34.5867 15.419C32.2608 14.2396 30.1773 12.6724 28.3913 10.7585C27.9731 10.6275 27.5458 10.5206 27.1184 10.441C25.9981 10.2314 25.0586 10.1395 24.324 10.1677C24.0882 10.177 23.8483 10.177 23.6126 10.1677C22.8785 10.1395 21.9385 10.2309 20.8187 10.441C20.3913 10.5212 19.9639 10.6275 19.5458 10.759C17.7603 12.6724 15.6768 14.2396 13.3504 15.4196C10.8133 16.7058 8.09292 17.4835 5.25693 17.7337V37.6211L5.25744 37.6206Z" fill="url(#paint2_linear_904_163)" stroke="url(#paint3_linear_904_163)" stroke-width="0.313855" stroke-miterlimit="10"/>
<path opacity="0.42" d="M29.8079 25.2065C35.632 29.7772 39.351 35.0295 41.6995 39.4342C41.8695 38.6945 41.9686 38.0622 42.0262 37.5819V18.3243C39.3217 18.0156 36.7245 17.2363 34.2907 16.0025C33.0292 15.3624 32.0398 14.7142 31.3577 14.2272C30.4125 13.5528 29.2418 12.6086 28.0337 11.3332C26.8327 11.2135 25.5131 11.1359 24.0907 11.1313C22.5728 11.1267 21.1705 11.2068 19.9022 11.3332C18.0915 13.2446 15.988 14.8143 13.6457 16.0025C13.1063 16.2763 12.5582 16.5259 12.0029 16.7545C16.9316 17.8774 23.4553 20.2218 29.8074 25.2065H29.8079Z" fill="url(#paint4_linear_904_163)"/>
<defs>
<linearGradient id="paint0_linear_904_163" x1="23.9687" y1="9.61391" x2="23.9687" y2="55.1614" gradientUnits="userSpaceOnUse">
<stop stop-color="#78B443"/>
<stop offset="1" stop-color="#419045"/>
</linearGradient>
<linearGradient id="paint1_linear_904_163" x1="7.244" y1="39.1999" x2="46.3824" y2="27.5539" gradientUnits="userSpaceOnUse">
<stop offset="0.21" stop-color="#261A6A"/>
<stop offset="0.35" stop-color="#261F6F"/>
<stop offset="0.54" stop-color="#28307D"/>
<stop offset="0.76" stop-color="#2B4C94"/>
<stop offset="1" stop-color="#3074B6"/>
</linearGradient>
<linearGradient id="paint2_linear_904_163" x1="23.9685" y1="9.06489" x2="23.9685" y2="55.7106" gradientUnits="userSpaceOnUse">
<stop stop-color="#3074B6"/>
<stop offset="1" stop-color="#261A6A"/>
</linearGradient>
<linearGradient id="paint3_linear_904_163" x1="23.9685" y1="8.9077" x2="23.9685" y2="55.8673" gradientUnits="userSpaceOnUse">
<stop stop-color="#261A6A"/>
<stop offset="1" stop-color="#3074B6"/>
</linearGradient>
<linearGradient id="paint4_linear_904_163" x1="18.5975" y1="34.1984" x2="48.3772" y2="12.1756" gradientUnits="userSpaceOnUse">
<stop stop-color="white"/>
<stop offset="0.13" stop-color="white" stop-opacity="0.86"/>
<stop offset="0.45" stop-color="white" stop-opacity="0.49"/>
<stop offset="0.71" stop-color="white" stop-opacity="0.23"/>
<stop offset="0.9" stop-color="white" stop-opacity="0.06"/>
<stop offset="1" stop-color="white" stop-opacity="0"/>
</linearGradient>
</defs>
</svg>
